<?xml version="1.0" encoding="UTF-8"?>
<svg version="1.1" xmlns="http://www.w3.org/2000/svg" width="655" height="381">
<path d="M0 0 C0.97195313 -0.02900391 1.94390625 -0.05800781 2.9453125 -0.08789062 C3.87859375 -0.09626953 4.811875 -0.10464844 5.7734375 -0.11328125 C6.63114746 -0.12786377 7.48885742 -0.14244629 8.37255859 -0.1574707 C10.625 0.3125 10.625 0.3125 12.42822266 2.02661133 C13.625 4.3125 13.625 4.3125 13.625 9.3125 C17.585 9.3125 21.545 9.3125 25.625 9.3125 C26.12 15.7475 26.12 15.7475 26.625 22.3125 C21.625 24.3125 21.625 24.3125 18.625 24.3125 C18.91375 25.21613281 19.2025 26.11976563 19.5 27.05078125 C19.87125 28.23027344 20.2425 29.40976563 20.625 30.625 C20.99625 31.79675781 21.3675 32.96851563 21.75 34.17578125 C22.625 37.3125 22.625 37.3125 22.625 40.3125 C23.78515625 40.29896484 23.78515625 40.29896484 24.96875 40.28515625 C31.94047274 40.48360875 36.25625126 41.38125126 41.265625 46.390625 C42.625 48.3125 42.625 48.3125 43.125 51.75 C42.96 52.595625 42.795 53.44125 42.625 54.3125 C37.2366454 53.85585978 34.24887843 53.15796365 29.625 50.3125 C23.42955253 48.64449491 19.37352091 50.12159366 13.625 52.3125 C12.47 52.621875 11.315 52.93125 10.125 53.25 C8.8875 53.7759375 8.8875 53.7759375 7.625 54.3125 C6.89176204 56.32758358 6.89176204 56.32758358 6.625 58.3125 C5.14 58.8075 5.14 58.8075 3.625 59.3125 C2.635 63.6025 1.645 67.8925 0.625 72.3125 C-32.045 72.3125 -64.715 72.3125 -98.375 72.3125 C-98.375 60.46500819 -97.23791523 49.17541523 -88.375 40.3125 C-90.685 39.9825 -92.995 39.6525 -95.375 39.3125 C-95.375 35.3525 -95.375 31.3925 -95.375 27.3125 C-72.935 27.3125 -50.495 27.3125 -27.375 27.3125 C-27.375 30.9425 -27.375 34.5725 -27.375 38.3125 C-29.355 38.9725 -31.335 39.6325 -33.375 40.3125 C-33.70576289 46.51124164 -33.66168304 50.83469494 -30.375 56.3125 C-30.375 56.9725 -30.375 57.6325 -30.375 58.3125 C-27.5847333 59.2425889 -25.60970458 59.49948769 -22.70703125 59.62890625 C-21.36801758 59.69174805 -21.36801758 59.69174805 -20.00195312 59.75585938 C-19.07318359 59.79517578 -18.14441406 59.83449219 -17.1875 59.875 C-15.77694336 59.93977539 -15.77694336 59.93977539 -14.33789062 60.00585938 C-12.01707146 60.11188665 -9.69614675 60.21395029 -7.375 60.3125 C-7.10171875 59.57128906 -6.8284375 58.83007812 -6.546875 58.06640625 C-5.44980656 55.48829542 -4.28446052 53.49384043 -2.625 51.25 C-2.15578125 50.59902344 -1.6865625 49.94804687 -1.203125 49.27734375 C1.11983265 46.78066063 3.74590797 45.11796414 6.625 43.3125 C5.71965446 30.73518626 4.65724867 18.57932417 1.625 6.3125 C-2.335 5.9825 -6.295 5.6525 -10.375 5.3125 C-10.87 3.3325 -10.87 3.3325 -11.375 1.3125 C-9.0029565 -1.0595435 -3.18332945 0.03141444 0 0 Z " fill="#016AF1" transform="translate(352.375,110.6875)"/>
<path d="M0 0 C0.97195313 -0.02900391 1.94390625 -0.05800781 2.9453125 -0.08789062 C3.87859375 -0.09626953 4.811875 -0.10464844 5.7734375 -0.11328125 C6.63114746 -0.12786377 7.48885742 -0.14244629 8.37255859 -0.1574707 C10.625 0.3125 10.625 0.3125 12.42822266 2.02661133 C13.625 4.3125 13.625 4.3125 13.625 9.3125 C17.585 9.3125 21.545 9.3125 25.625 9.3125 C26.12 15.7475 26.12 15.7475 26.625 22.3125 C21.625 24.3125 21.625 24.3125 18.625 24.3125 C18.91375 25.21613281 19.2025 26.11976563 19.5 27.05078125 C19.87125 28.23027344 20.2425 29.40976563 20.625 30.625 C20.99625 31.79675781 21.3675 32.96851563 21.75 34.17578125 C22.625 37.3125 22.625 37.3125 22.625 40.3125 C23.78515625 40.29896484 23.78515625 40.29896484 24.96875 40.28515625 C31.94047274 40.48360875 36.25625126 41.38125126 41.265625 46.390625 C42.625 48.3125 42.625 48.3125 43.125 51.75 C42.96 52.595625 42.795 53.44125 42.625 54.3125 C37.2366454 53.85585978 34.24887843 53.15796365 29.625 50.3125 C23.42955253 48.64449491 19.37352091 50.12159366 13.625 52.3125 C12.47 52.621875 11.315 52.93125 10.125 53.25 C8.8875 53.7759375 8.8875 53.7759375 7.625 54.3125 C6.89176204 56.32758358 6.89176204 56.32758358 6.625 58.3125 C5.14 58.8075 5.14 58.8075 3.625 59.3125 C2.635 63.6025 1.645 67.8925 0.625 72.3125 C-32.045 72.3125 -64.715 72.3125 -98.375 72.3125 C-98.375 60.46500819 -97.23791523 49.17541523 -88.375 40.3125 C-90.685 39.9825 -92.995 39.6525 -95.375 39.3125 C-95.375 35.3525 -95.375 31.3925 -95.375 27.3125 C-72.935 27.3125 -50.495 27.3125 -27.375 27.3125 C-27.375 30.9425 -27.375 34.5725 -27.375 38.3125 C-29.355 38.9725 -31.335 39.6325 -33.375 40.3125 C-33.70576289 46.51124164 -33.66168304 50.83469494 -30.375 56.3125 C-30.375 56.9725 -30.375 57.6325 -30.375 58.3125 C-27.5847333 59.2425889 -25.60970458 59.49948769 -22.70703125 59.62890625 C-21.36801758 59.69174805 -21.36801758 59.69174805 -20.00195312 59.75585938 C-19.07318359 59.79517578 -18.14441406 59.83449219 -17.1875 59.875 C-15.77694336 59.93977539 -15.77694336 59.93977539 -14.33789062 60.00585938 C-12.01707146 60.11188665 -9.69614675 60.21395029 -7.375 60.3125 C-7.10171875 59.57128906 -6.8284375 58.83007812 -6.546875 58.06640625 C-5.44980656 55.48829542 -4.28446052 53.49384043 -2.625 51.25 C-2.15578125 50.59902344 -1.6865625 49.94804687 -1.203125 49.27734375 C1.11983265 46.78066063 3.74590797 45.11796414 6.625 43.3125 C5.71965446 30.73518626 4.65724867 18.57932417 1.625 6.3125 C-2.335 5.9825 -6.295 5.6525 -10.375 5.3125 C-10.87 3.3325 -10.87 3.3325 -11.375 1.3125 C-9.0029565 -1.0595435 -3.18332945 0.03141444 0 0 Z M-93.375 29.3125 C-93.375 31.9525 -93.375 34.5925 -93.375 37.3125 C-90.405 37.8075 -90.405 37.8075 -87.375 38.3125 C-87.81584632 43.82307896 -89.17719743 46.85495702 -92.375 51.3125 C-95.33246746 57.72034617 -96.375 63.20542658 -96.375 70.3125 C-65.025 70.3125 -33.675 70.3125 -1.375 70.3125 C-0.715 67.3425 -0.055 64.3725 0.625 61.3125 C1.285 61.3125 1.945 61.3125 2.625 61.3125 C2.13 59.3325 2.13 59.3325 1.625 57.3125 C2.615 56.8175 2.615 56.8175 3.625 56.3125 C2.25014468 54.77083358 2.25014468 54.77083358 0.625 53.3125 C-0.035 53.3125 -0.695 53.3125 -1.375 53.3125 C-2.035 54.9625 -2.695 56.6125 -3.375 58.3125 C-4.035 58.3125 -4.695 58.3125 -5.375 58.3125 C-5.87 59.7975 -5.87 59.7975 -6.375 61.3125 C-14.295 61.6425 -22.215 61.9725 -30.375 62.3125 C-30.705 60.6625 -31.035 59.0125 -31.375 57.3125 C-32.695 56.9825 -34.015 56.6525 -35.375 56.3125 C-35.375 49.7125 -35.375 43.1125 -35.375 36.3125 C-33.395 36.3125 -31.415 36.3125 -29.375 36.3125 C-29.375 34.0025 -29.375 31.6925 -29.375 29.3125 C-50.495 29.3125 -71.615 29.3125 -93.375 29.3125 Z " fill="#046AF0" transform="translate(352.375,110.6875)"/>
<path d="M0 0 C1.66796875 1.65625 1.66796875 1.65625 3.1875 3.5 C3.69667969 4.1084375 4.20585937 4.716875 4.73046875 5.34375 C8.74973118 10.58734161 7.54216446 18.7121386 7 25 C5.27804453 29.88788257 1.63386219 32.97042575 -2.9921875 35.2734375 C-10.10389228 37.84693378 -16.0306907 37.36330457 -22.8671875 34.234375 C-26.74982226 31.98728235 -28.36510813 29.33327292 -30.25 25.375 C-31.91520356 17.88158398 -31.98843542 10.69487375 -28 4 C-26.0625 2.8125 -26.0625 2.8125 -24 2 C-23.401875 1.319375 -22.80375 0.63875 -22.1875 -0.0625 C-16.71609648 -4.90860026 -6.01968411 -3.6678642 0 0 Z " fill="#066CEF" transform="translate(388,166)"/>
<path d="M0 0 C18 0 18 0 22 3 C22.45410156 4.9453125 22.45410156 4.9453125 22.390625 7.125 C22.37128906 8.30835938 22.37128906 8.30835938 22.3515625 9.515625 C22.31804687 10.33546875 22.28453125 11.1553125 22.25 12 C22.23195313 12.81984375 22.21390625 13.6396875 22.1953125 14.484375 C22.16045724 16.00804758 22.11738619 17.53157005 22.06347656 19.0546875 C22.00971137 20.70238383 22 22.35142671 22 24 C22 31 22 38 22 45 C19.69 45 17.38 45 15 45 C13.84429296 41.53287889 13.67164707 38.4585044 13.4375 34.8125 C13.31181641 32.90404297 13.31181641 32.90404297 13.18359375 30.95703125 C13.12300781 29.98121094 13.06242187 29.00539062 13 28 C11.68 27.67 10.36 27.34 9 27 C9 32.94 9 38.88 9 45 C6.03 45 3.06 45 0 45 C0 30.15 0 15.3 0 0 Z M9 7 C9 10.96 9 14.92 9 19 C10.65 18.67 12.3 18.34 14 18 C14 14.7 14 11.4 14 8 C12.35 7.67 10.7 7.34 9 7 Z " fill="#036BF3" transform="translate(477,222)"/>
<path d="M0 0 C2.77755387 6.58280267 2.29527673 13.52574225 2.25 20.5625 C2.25773437 21.76841797 2.26546875 22.97433594 2.2734375 24.21679688 C2.27085937 25.38404297 2.26828125 26.55128906 2.265625 27.75390625 C2.26336914 28.80908447 2.26111328 29.8642627 2.25878906 30.95141602 C1.90194175 35.15514468 1.19266669 38.76025436 -1.78125 41.8515625 C-4.51544112 43.26679523 -6.42993592 43.40030273 -9.5 43.375 C-10.90765625 43.38660156 -10.90765625 43.38660156 -12.34375 43.3984375 C-15.58282246 42.91257663 -16.79848733 42.44290661 -19 40 C-21.34595025 33.43878677 -21.33397986 26.9747184 -21.3125 20.0625 C-21.32861328 19.02931641 -21.34472656 17.99613281 -21.36132812 16.93164062 C-21.36530802 10.64738266 -20.99434751 4.65707083 -18 -1 C-12.55904734 -4.36820879 -5.17807473 -3.45204982 0 0 Z M-11 5 C-12.38308781 7.76617563 -12.11210196 10.01018 -12.09765625 13.1015625 C-12.09443359 14.31328125 -12.09121094 15.525 -12.08789062 16.7734375 C-12.07951172 18.04445312 -12.07113281 19.31546875 -12.0625 20.625 C-12.05798828 21.90375 -12.05347656 23.1825 -12.04882812 24.5 C-12.03701203 27.66671292 -12.02053815 30.83333356 -12 34 C-10.05396726 34.59070014 -10.05396726 34.59070014 -8 35 C-6.69338505 33.91891551 -6.69338505 33.91891551 -6.88647461 31.31616211 C-6.89171143 30.14835205 -6.89694824 28.98054199 -6.90234375 27.77734375 C-6.90556641 26.51728516 -6.90878906 25.25722656 -6.91210938 23.95898438 C-6.92046597 22.61848891 -6.92893093 21.27799412 -6.9375 19.9375 C-6.9425134 18.59310058 -6.94707658 17.2486994 -6.95117188 15.90429688 C-6.96300512 12.60282059 -6.97949029 9.30143197 -7 6 C-8.32 5.67 -9.64 5.34 -11 5 Z " fill="#0369EF" transform="translate(377,224)"/>
<path d="M0 0 C3.69612689 2.46408459 3.93228727 3.76803201 5 8 C5.40818373 12.8270901 5.32445135 17.65731166 5.3125 22.5 C5.32861328 23.80582031 5.34472656 25.11164063 5.36132812 26.45703125 C5.36197266 27.71902344 5.36261719 28.98101562 5.36328125 30.28125 C5.36626221 31.42658203 5.36924316 32.57191406 5.37231445 33.75195312 C4.84321197 38.36780853 3.28482708 41.71517292 0 45 C-2.64453125 45.37109375 -2.64453125 45.37109375 -5.8125 45.4375 C-7.36904297 45.49744141 -7.36904297 45.49744141 -8.95703125 45.55859375 C-13.12744044 44.79303725 -14.39208913 43.31272232 -17 40 C-17.4752463 37.0455522 -17.65787661 34.68440916 -17.59375 31.7421875 C-17.59379028 30.95731964 -17.59383057 30.17245178 -17.59387207 29.36380005 C-17.58852844 27.71136427 -17.57099494 26.05892816 -17.54199219 24.40673828 C-17.50001394 21.87584037 -17.50093561 19.34759475 -17.5078125 16.81640625 C-17.49732342 15.20831483 -17.48438683 13.60023711 -17.46875 11.9921875 C-17.46854858 11.23590057 -17.46834717 10.47961365 -17.46813965 9.70040894 C-17.3502546 4.48190624 -17.3502546 4.48190624 -15.60351562 2.07861328 C-10.45631029 -1.38368166 -5.92592811 -1.37605821 0 0 Z M-8 7 C-9.30661495 8.08108449 -9.30661495 8.08108449 -9.11352539 10.68383789 C-9.10828857 11.85164795 -9.10305176 13.01945801 -9.09765625 14.22265625 C-9.09443359 15.48271484 -9.09121094 16.74277344 -9.08789062 18.04101562 C-9.07953403 19.38151109 -9.07106907 20.72200588 -9.0625 22.0625 C-9.0574866 23.40689942 -9.05292342 24.7513006 -9.04882812 26.09570312 C-9.03699488 29.39717941 -9.02050971 32.69856803 -9 36 C-7.05396726 36.59070014 -7.05396726 36.59070014 -5 37 C-3.20170923 35.20170923 -3.86964342 32.49022841 -3.8671875 30.06640625 C-3.86589844 28.86048828 -3.86460937 27.65457031 -3.86328125 26.41210938 C-3.86714844 25.14173828 -3.87101562 23.87136719 -3.875 22.5625 C-3.86919922 20.66274414 -3.86919922 20.66274414 -3.86328125 18.72460938 C-3.86521484 16.91379883 -3.86521484 16.91379883 -3.8671875 15.06640625 C-3.86831543 13.95209229 -3.86944336 12.83777832 -3.87060547 11.68969727 C-3.81719784 9.02917261 -3.81719784 9.02917261 -5 7 C-5.99 7 -6.98 7 -8 7 Z " fill="#036AEE" transform="translate(405,222)"/>
<path d="M0 0 C2.45243461 1.90063682 3.62927427 3.25854855 5 6 C5.06996014 7.70702735 5.08440154 9.41668003 5.0625 11.125 C5.05347656 12.03507813 5.04445312 12.94515625 5.03515625 13.8828125 C5.02355469 14.58148438 5.01195312 15.28015625 5 16 C2.36 16 -0.28 16 -3 16 C-3.33 13.03 -3.66 10.06 -4 7 C-5.32 7.33 -6.64 7.66 -8 8 C-8 17.24 -8 26.48 -8 36 C-6.68 36 -5.36 36 -4 36 C-4 33.03 -4 30.06 -4 27 C-4.66 26.67 -5.32 26.34 -6 26 C-6 23.36 -6 20.72 -6 18 C-2.37 18 1.26 18 5 18 C5.1081174 21.39668836 5.18737188 24.78992439 5.25 28.1875 C5.30027344 29.62706055 5.30027344 29.62706055 5.3515625 31.09570312 C5.45069252 38.25784723 5.45069252 38.25784723 3.109375 42.11328125 C-0.06682559 44.95421622 -2.11348873 45.24999341 -6.3125 45.4375 C-7.72982422 45.52837891 -7.72982422 45.52837891 -9.17578125 45.62109375 C-12.54841143 44.879395 -13.83208974 43.46697582 -15.9417572 40.79924011 C-17.74081925 37.74044811 -17.71405063 34.59508355 -17.6640625 31.15234375 C-17.66884613 30.41802628 -17.67362976 29.6837088 -17.67855835 28.92713928 C-17.68194378 27.38328901 -17.67283639 25.83936571 -17.65185547 24.2956543 C-17.62502407 21.9396133 -17.65166106 19.58831773 -17.68359375 17.23242188 C-17.68029015 15.72655205 -17.67388494 14.22068516 -17.6640625 12.71484375 C-17.67418365 12.01576401 -17.68430481 11.31668427 -17.69473267 10.59642029 C-17.60303034 6.75069421 -17.0887758 5.11010888 -14.64599609 2.08032227 C-9.8957532 -1.65439075 -5.65827668 -1.35061939 0 0 Z " fill="#4C8EDF" transform="translate(166,222)"/>
<path d="M0 0 C4.43782363 5.1774609 2.68439017 14.88729213 2.6875 21.25 C2.69974609 22.56871094 2.71199219 23.88742188 2.72460938 25.24609375 C2.72750977 27.15068359 2.72750977 27.15068359 2.73046875 29.09375 C2.73457764 30.25068359 2.73868652 31.40761719 2.74291992 32.59960938 C2.44247256 36.49606437 1.50011097 39.36802848 -0.7890625 42.53125 C-4.42462212 45.1209637 -9.27673999 44.4353536 -13.5 43.75 C-16.625 41.3125 -16.625 41.3125 -18.5 38.75 C-18.83 38.42 -19.16 38.09 -19.5 37.75 C-19.62570227 35.36013318 -19.68862695 33.00072824 -19.703125 30.609375 C-19.70882507 29.89017883 -19.71452515 29.17098267 -19.72039795 28.42999268 C-19.72986361 26.90337603 -19.73638812 25.3767388 -19.74023438 23.85009766 C-19.74990279 21.52339426 -19.78089405 19.19758817 -19.8125 16.87109375 C-19.81903369 15.38802608 -19.82428272 13.90495208 -19.828125 12.421875 C-19.8404718 11.72898376 -19.8528186 11.03609253 -19.86553955 10.32220459 C-19.84557986 5.95210477 -19.16453117 3.23115914 -16.5 -0.25 C-11.54571557 -3.45571345 -5.09427462 -2.54713731 0 0 Z M-10.5 5.75 C-11.52628246 8.82884739 -11.62906515 10.9626363 -11.6328125 14.1875 C-11.63410156 15.24710938 -11.63539063 16.30671875 -11.63671875 17.3984375 C-11.63285156 18.50445312 -11.62898437 19.61046875 -11.625 20.75 C-11.62886719 21.85601562 -11.63273438 22.96203125 -11.63671875 24.1015625 C-11.63542969 25.16117188 -11.63414062 26.22078125 -11.6328125 27.3125 C-11.63168457 28.28316406 -11.63055664 29.25382812 -11.62939453 30.25390625 C-11.60444752 32.88114254 -11.60444752 32.88114254 -10.5 35.75 C-8.85 35.42 -7.2 35.09 -5.5 34.75 C-5.47108454 30.29168018 -5.45323019 25.83338431 -5.4375 21.375 C-5.42912109 20.10398438 -5.42074219 18.83296875 -5.41210938 17.5234375 C-5.40888672 16.31171875 -5.40566406 15.1 -5.40234375 13.8515625 C-5.39710693 12.73088379 -5.39187012 11.61020508 -5.38647461 10.45556641 C-5.31378534 7.78132657 -5.31378534 7.78132657 -6.5 5.75 C-7.82 5.75 -9.14 5.75 -10.5 5.75 Z " fill="#0B6CE9" transform="translate(260.5,223.25)"/>
<path d="M0 0 C2.64 0 5.28 0 8 0 C8.82121363 4.27904033 9.10724501 8.28668654 9.0625 12.640625 C9.05476562 13.87554687 9.04703125 15.11046875 9.0390625 16.3828125 C9.02617187 17.65898437 9.01328125 18.93515625 9 20.25 C8.9745825 22.79683338 8.9535183 25.34371517 8.9375 27.890625 C8.92589844 29.01500977 8.91429687 30.13939453 8.90234375 31.29785156 C8.81192214 33.96935937 8.81192214 33.96935937 10 36 C10.99 36 11.98 36 13 36 C13.33 24.12 13.66 12.24 14 0 C16.64 0 19.28 0 22 0 C22.12395838 5.44425217 22.2145074 10.8876761 22.2746582 16.33300781 C22.29974245 18.18373938 22.33381845 20.03437247 22.37719727 21.88476562 C22.43811995 24.55102883 22.46626991 27.21597825 22.48828125 29.8828125 C22.51408768 30.70492218 22.5398941 31.52703186 22.56648254 32.37405396 C22.5684902 36.52251248 22.27312542 39.2102038 19.6640625 42.53320312 C17 45 17 45 13.88671875 45.5859375 C12.83097656 45.51632812 11.77523437 45.44671875 10.6875 45.375 C9.08455078 45.29378906 9.08455078 45.29378906 7.44921875 45.2109375 C6.64097656 45.14132812 5.83273438 45.07171875 5 45 C4.505 43.515 4.505 43.515 4 42 C3.01 41.67 2.02 41.34 1 41 C-0.66577625 37.66844749 -0.12007856 33.93463941 -0.09765625 30.2734375 C-0.0962413 29.41062164 -0.09482635 28.54780579 -0.09336853 27.65884399 C-0.08776188 24.8975277 -0.07520827 22.13629188 -0.0625 19.375 C-0.05748586 17.5052095 -0.0529228 15.63541774 -0.04882812 13.765625 C-0.03779029 9.17705223 -0.0205212 4.58853977 0 0 Z " fill="#1370E5" transform="translate(180,222)"/>
<path d="M0 0 C0.33 0 0.66 0 1 0 C1 1.98 1 3.96 1 6 C1.66 6 2.32 6 3 6 C3.27565727 8.60376274 3.52127265 11.20455968 3.75 13.8125 C3.83121094 14.55048828 3.91242188 15.28847656 3.99609375 16.04882812 C4.171875 18.20703125 4.171875 18.20703125 4 22 C2.140625 24.01171875 2.140625 24.01171875 0 25 C-0.66 25 -1.32 25 -2 25 C-1.505 26.98 -1.505 26.98 -1 29 C-0.01 28.505 -0.01 28.505 1 28 C3.00800456 28.28112064 5.01014051 28.61067967 7 29 C4 31 4 31 2 31 C1.896875 31.639375 1.79375 32.27875 1.6875 32.9375 C1.460625 33.618125 1.23375 34.29875 1 35 C-0.485 35.495 -0.485 35.495 -2 36 C-2.99 40.29 -3.98 44.58 -5 49 C-37.67 49 -70.34 49 -104 49 C-104 37.15250819 -102.86291523 25.86291523 -94 17 C-96.31 16.67 -98.62 16.34 -101 16 C-101 12.04 -101 8.08 -101 4 C-78.56 4 -56.12 4 -33 4 C-33 7.63 -33 11.26 -33 15 C-34.98 15.66 -36.96 16.32 -39 17 C-39.33076289 23.19874164 -39.28668304 27.52219494 -36 33 C-36 33.66 -36 34.32 -36 35 C-33.2097333 35.9300889 -31.23470458 36.18698769 -28.33203125 36.31640625 C-26.99301758 36.37924805 -26.99301758 36.37924805 -25.62695312 36.44335938 C-24.69818359 36.48267578 -23.76941406 36.52199219 -22.8125 36.5625 C-21.40194336 36.62727539 -21.40194336 36.62727539 -19.96289062 36.69335938 C-17.64207146 36.79938665 -15.32114675 36.90145029 -13 37 C-12.72671875 36.25878906 -12.4534375 35.51757812 -12.171875 34.75390625 C-11.07480656 32.17579542 -9.90946052 30.18134043 -8.25 27.9375 C-7.78078125 27.28652344 -7.3115625 26.63554687 -6.828125 25.96484375 C-5 24 -5 24 -1.7890625 22.39453125 C1.17415332 20.36178472 1.17415332 20.36178472 1.38867188 17.81030273 C1.36599823 15.09178439 1.16273519 12.45319636 0.875 9.75 C0.76285156 8.34621094 0.76285156 8.34621094 0.6484375 6.9140625 C0.45998382 4.60550493 0.24302519 2.30334582 0 0 Z M-99 6 C-99 8.64 -99 11.28 -99 14 C-96.03 14.495 -96.03 14.495 -93 15 C-93.44084632 20.51057896 -94.80219743 23.54245702 -98 28 C-100.95746746 34.40784617 -102 39.89292658 -102 47 C-70.65 47 -39.3 47 -7 47 C-6.34 44.03 -5.68 41.06 -5 38 C-4.34 38 -3.68 38 -3 38 C-3.495 36.02 -3.495 36.02 -4 34 C-3.01 33.505 -3.01 33.505 -2 33 C-3.37485532 31.45833358 -3.37485532 31.45833358 -5 30 C-5.66 30 -6.32 30 -7 30 C-7.66 31.65 -8.32 33.3 -9 35 C-9.66 35 -10.32 35 -11 35 C-11.495 36.485 -11.495 36.485 -12 38 C-19.92 38.33 -27.84 38.66 -36 39 C-36.33 37.35 -36.66 35.7 -37 34 C-38.32 33.67 -39.64 33.34 -41 33 C-41 26.4 -41 19.8 -41 13 C-39.02 13 -37.04 13 -35 13 C-35 10.69 -35 8.38 -35 6 C-56.12 6 -77.24 6 -99 6 Z " fill="#448BE1" transform="translate(358,134)"/>
<path d="M0 0 C3.71905926 2.47937284 3.96900369 3.71739996 5 8 C5.15015097 10.69303025 5.09314985 13.29865447 5 16 C2.03 16 -0.94 16 -4 16 C-4.33 13.36 -4.66 10.72 -5 8 C-5.99 7.67 -6.98 7.34 -8 7 C-8 16.57 -8 26.14 -8 36 C-7.01 36 -6.02 36 -5 36 C-4.505 31.545 -4.505 31.545 -4 27 C-1.03 27 1.94 27 5 27 C5.32297455 33.05278224 5.52333984 37.78023727 2 43 C-2.64975262 46.09983508 -7.55754882 45.75171978 -13 45 C-16.02580988 42.39639615 -16.75353684 40.73938948 -18 37 C-18.22733035 32.7461669 -18.22826772 28.49009027 -18.24023438 24.23095703 C-18.24993395 22.13924294 -18.28096762 20.04851463 -18.3125 17.95703125 C-18.3190314 16.61979747 -18.32428133 15.2825567 -18.328125 13.9453125 C-18.3374707 12.73375488 -18.34681641 11.52219727 -18.35644531 10.27392578 C-17.96635027 6.69092951 -17.15231846 4.85888766 -15 2 C-10.0855001 -1.51035707 -5.6712757 -1.43672318 0 0 Z " fill="#448FEA" transform="translate(343,222)"/>
<path d="M0 0 C3.80785341 2.6972295 4.81227162 4.19544979 5.875 8.75 C5.91625 9.8225 5.9575 10.895 6 12 C5 13 5 13 3.15234375 13.09765625 C1.1015625 13.06510417 -0.94921875 13.03255208 -3 13 C-3.33 11.35 -3.66 9.7 -4 8 C-5.32 7.67 -6.64 7.34 -8 7 C-7.96838142 10.32075016 -7.96838142 10.32075016 -7 14 C-5.05874656 15.73473712 -3.05727132 17.4045651 -1 19 C0.375 21.8125 0.375 21.8125 1 24 C1.66 24 2.32 24 3 24 C5.1615668 28.50326417 6.75834994 31.90822185 6 37 C4.2344231 40.0603333 2.49412245 42.50587755 0 45 C-5.1561227 45.71405242 -9.61459867 45.8312408 -14.125 43.125 C-16.85322855 40.03300764 -17.12009319 38.40652357 -17.0625 34.375 C-17.05347656 33.55773437 -17.04445313 32.74046875 -17.03515625 31.8984375 C-17.02355469 31.27195313 -17.01195312 30.64546875 -17 30 C-14.36 30 -11.72 30 -9 30 C-8.67 32.31 -8.34 34.62 -8 37 C-6.02 36.505 -6.02 36.505 -4 36 C-4.38128111 30.53497072 -6.01554661 28.63027976 -10 25 C-11.10042051 23.78610688 -12.18351049 22.55630945 -13.25 21.3125 C-13.75015625 20.73113281 -14.2503125 20.14976562 -14.765625 19.55078125 C-17.68299808 15.88560051 -17.38517221 12.23977978 -17.35546875 7.70703125 C-17 5 -17 5 -14.6875 1.875 C-9.79144803 -1.54085021 -5.62730316 -1.42163448 0 0 Z " fill="#096BEB" transform="translate(312,222)"/>
<path d="M0 0 C6.93 0 13.86 0 21 0 C21 2.31 21 4.62 21 7 C17.04 7 13.08 7 9 7 C9 10.63 9 14.26 9 18 C11.97 18 14.94 18 18 18 C18 20.31 18 22.62 18 25 C15.03 25 12.06 25 9 25 C9 28.96 9 32.92 9 37 C12.96 37 16.92 37 21 37 C21 39.64 21 42.28 21 45 C14.07 45 7.14 45 0 45 C0 30.15 0 15.3 0 0 Z " fill="#046AEF" transform="translate(448,222)"/>
<path d="M0 0 C6.6 0 13.2 0 20 0 C20 10.90292553 20 10.90292553 17.1484375 15.84765625 C15.30879215 19.29542696 14.1752471 22.98418423 12.9296875 26.6796875 C12 29 12 29 10 31 C9.60235737 32.98821313 9.26224651 34.98944339 9 37 C12.63 37 16.26 37 20 37 C20 39.64 20 42.28 20 45 C13.07 45 6.14 45 -1 45 C-1 34.87315634 -1 34.87315634 1.3125 29.375 C1.77140625 28.26382813 2.2303125 27.15265625 2.703125 26.0078125 C3.13109375 25.01523438 3.5590625 24.02265625 4 23 C4.28359375 22.31679687 4.5671875 21.63359375 4.859375 20.9296875 C6.81810812 16.25049172 8.93328364 11.63229528 11 7 C7.37 7 3.74 7 0 7 C0 4.69 0 2.38 0 0 Z " fill="#2478E2" transform="translate(212,222)"/>
<path d="M0 0 C7.92 0 15.84 0 24 0 C24 2.31 24 4.62 24 7 C21.36 7 18.72 7 16 7 C16 19.54 16 32.08 16 45 C13.03 45 10.06 45 7 45 C7 32.46 7 19.92 7 7 C4.69 7 2.38 7 0 7 C0 4.69 0 2.38 0 0 Z " fill="#126DDE" transform="translate(417,222)"/>
<path d="M0 0 C12.87 0 25.74 0 39 0 C37.94374688 5.28126562 36.68443571 9.92112304 32.3203125 13.30078125 C26.83091839 16.54023056 22.33903276 17.61345478 16 17 C12.44766809 15.68626778 9.06895214 14.23410309 6 12 C5.2109375 9.828125 5.2109375 9.828125 5 8 C4.34 8 3.68 8 3 8 C0 2.25 0 2.25 0 0 Z " fill="#096EEF" transform="translate(267,186)"/>
<path d="M0 0 C3.69612689 2.46408459 3.93228727 3.76803201 5 8 C5.40818373 12.8270901 5.32445135 17.65731166 5.3125 22.5 C5.32861328 23.80582031 5.34472656 25.11164063 5.36132812 26.45703125 C5.36197266 27.71902344 5.36261719 28.98101562 5.36328125 30.28125 C5.36626221 31.42658203 5.36924316 32.57191406 5.37231445 33.75195312 C4.84321197 38.36780853 3.28482708 41.71517292 0 45 C-2.64453125 45.37109375 -2.64453125 45.37109375 -5.8125 45.4375 C-7.36904297 45.49744141 -7.36904297 45.49744141 -8.95703125 45.55859375 C-13.12744044 44.79303725 -14.39208913 43.31272232 -17 40 C-17.4752463 37.0455522 -17.65787661 34.68440916 -17.59375 31.7421875 C-17.59379028 30.95731964 -17.59383057 30.17245178 -17.59387207 29.36380005 C-17.58852844 27.71136427 -17.57099494 26.05892816 -17.54199219 24.40673828 C-17.50001394 21.87584037 -17.50093561 19.34759475 -17.5078125 16.81640625 C-17.49732342 15.20831483 -17.48438683 13.60023711 -17.46875 11.9921875 C-17.46854858 11.23590057 -17.46834717 10.47961365 -17.46813965 9.70040894 C-17.3502546 4.48190624 -17.3502546 4.48190624 -15.60351562 2.07861328 C-10.45631029 -1.38368166 -5.92592811 -1.37605821 0 0 Z M-15 4 C-17.1943048 8.38860959 -16.10899078 14.16842796 -16 19 C-15.98211426 19.86979492 -15.96422852 20.73958984 -15.94580078 21.63574219 C-15.87828423 24.48720767 -15.78613821 27.33695295 -15.6875 30.1875 C-15.66510254 31.12053955 -15.64270508 32.0535791 -15.61962891 33.01489258 C-15.58401855 33.89040771 -15.5484082 34.76592285 -15.51171875 35.66796875 C-15.48553467 36.45453857 -15.45935059 37.2411084 -15.43237305 38.05151367 C-15.14659908 40.4021358 -15.14659908 40.4021358 -12 42 C-9.35367713 41.6878236 -9.35367713 41.6878236 -7 41 C-7.65121826 40.4534375 -8.30243652 39.906875 -8.97338867 39.34375 C-11.45220912 36.47702596 -11.48253976 35.23289142 -11.42578125 31.5 C-11.41740234 30.448125 -11.40902344 29.39625 -11.40039062 28.3125 C-11.37138672 27.219375 -11.34238281 26.12625 -11.3125 25 C-11.30283203 23.906875 -11.29316406 22.81375 -11.28320312 21.6875 C-11.22019231 17.21647155 -11.08973335 13.35893341 -10 9 C-9.67 17.91 -9.34 26.82 -9 36 C-7.68 36.33 -6.36 36.66 -5 37 C-3.70454552 35.92970871 -3.70454552 35.92970871 -3.88647461 33.40795898 C-3.89171143 32.28204346 -3.89694824 31.15612793 -3.90234375 29.99609375 C-3.90717773 28.17368164 -3.90717773 28.17368164 -3.91210938 26.31445312 C-3.92467773 24.39536133 -3.92467773 24.39536133 -3.9375 22.4375 C-3.94201172 21.15423828 -3.94652344 19.87097656 -3.95117188 18.54882812 C-3.96300455 15.36583978 -3.97948932 12.18294238 -4 9 C-3.34 9 -2.68 9 -2 9 C-2.13972568 13.18772701 -2.28787081 17.37511607 -2.4375 21.5625 C-2.49647461 23.33463867 -2.49647461 23.33463867 -2.55664062 25.14257812 C-2.7637504 30.83013123 -3.01968432 36.38995814 -4 42 C-2.02 42 -0.04 42 2 42 C3.22426815 35.47871128 3.18397712 29.11596648 3.1875 22.5 C3.20586914 20.68435547 3.20586914 20.68435547 3.22460938 18.83203125 C3.22654297 17.66027344 3.22847656 16.48851562 3.23046875 15.28125 C3.23663208 13.68893555 3.23663208 13.68893555 3.24291992 12.06445312 C2.98191032 8.77179734 2.16424391 6.08004087 1 3 C-0.32 3 -1.64 3 -3 3 C-3 2.34 -3 1.68 -3 1 C-7.99184736 0.70636192 -10.97444744 0.92163628 -15 4 Z " fill="#418AE5" transform="translate(405,222)"/>
<path d="M0 0 C13 0 13 0 19 2 C19 7.61 19 13.22 19 19 C18.67 19 18.34 19 18 19 C17.67 17.02 17.34 15.04 17 13 C16.01 13 15.02 13 14 13 C13.67 11.02 13.34 9.04 13 7 C11.02 7 9.04 7 7 7 C6.93941406 8.03640625 6.87882812 9.0728125 6.81640625 10.140625 C6.73196629 11.51042873 6.64732003 12.88021975 6.5625 14.25 C6.52318359 14.93191406 6.48386719 15.61382812 6.44335938 16.31640625 C6.11202278 21.56681684 6.11202278 21.56681684 5.48632812 23.98632812 C4.671958 27.35827831 4.89789433 30.80126039 4.9375 34.25 C4.94201172 34.99507813 4.94652344 35.74015625 4.95117188 36.5078125 C4.96290754 38.3385764 4.9808415 40.16929873 5 42 C3.35 42 1.7 42 0 42 C0 28.14 0 14.28 0 0 Z " fill="#036AEE" transform="translate(479,223)"/>
<path d="M0 0 C3 2 3 2 4 5 C4.06802967 6.72795352 4.08495645 8.45835365 4.0625 10.1875 C4.05347656 11.08855469 4.04445313 11.98960937 4.03515625 12.91796875 C4.02355469 13.60503906 4.01195312 14.29210937 4 15 C2.35 15 0.7 15 -1 15 C-3 9.375 -3 9.375 -3 6 C-4.98 6 -6.96 6 -9 6 C-9 6.66 -9 7.32 -9 8 C-9.66 8 -10.32 8 -11 8 C-10.67 8.66 -10.34 9.32 -10 10 C-9.915085 11.8863912 -9.892807 13.77578515 -9.90234375 15.6640625 C-9.90556641 16.78554687 -9.90878906 17.90703125 -9.91210938 19.0625 C-9.92048828 20.238125 -9.92886719 21.41375 -9.9375 22.625 C-9.94201172 23.80835938 -9.94652344 24.99171875 -9.95117188 26.2109375 C-9.96298533 29.14067507 -9.97945742 32.07031272 -10 35 C-10.66 34.67 -11.32 34.34 -12 34 C-12.66 34.99 -13.32 35.98 -14 37 C-16.82122215 34.17877785 -16.25833532 32.3280911 -16.265625 28.3828125 C-16.26849518 27.40246536 -16.26849518 27.40246536 -16.27142334 26.40231323 C-16.27278487 25.01869319 -16.26909064 23.63506037 -16.26074219 22.25146484 C-16.2500758 20.14000462 -16.26062002 18.02940185 -16.2734375 15.91796875 C-16.27211523 14.5729148 -16.26955143 13.22786137 -16.265625 11.8828125 C-16.26336914 10.65965332 -16.26111328 9.43649414 -16.25878906 8.17626953 C-16.0128845 5.158139 -15.67341831 3.48515108 -14 1 C-9.63310676 -1.77893206 -4.85682422 -1.12780188 0 0 Z " fill="#0F69DC" transform="translate(343,222)"/>
<path d="M0 0 C2.64 0 5.28 0 8 0 C8.92240053 4.58638039 9.03831457 8.77634896 8.84375 13.4453125 C8.81776733 14.13760956 8.79178467 14.82990662 8.76501465 15.54318237 C8.68245129 17.73739339 8.59215331 19.93117218 8.5 22.125 C8.37884413 25.02322591 8.26534298 27.92161046 8.15625 30.8203125 C8.10275391 32.10180176 8.04925781 33.38329102 7.99414062 34.70361328 C7.99896225 37.4161782 8.1617426 39.44909601 9 42 C7.68 42 6.36 42 5 42 C5 41.01 5 40.02 5 39 C4.360625 38.87625 3.72125 38.7525 3.0625 38.625 C2.381875 38.41875 1.70125 38.2125 1 38 C-0.58645357 34.82709287 -0.12078213 31.41174616 -0.09765625 27.9296875 C-0.0962413 27.13345978 -0.09482635 26.33723206 -0.09336853 25.51687622 C-0.08776345 22.9695462 -0.07521014 20.42230353 -0.0625 17.875 C-0.05748565 16.14974085 -0.05292263 14.42448033 -0.04882812 12.69921875 C-0.03779237 8.46611209 -0.02052436 4.23307086 0 0 Z " fill="#0769E6" transform="translate(180,222)"/>
<path d="M0 0 C1.65 0 3.3 0 5 0 C5.33 4.29 5.66 8.58 6 13 C1 15 1 15 -2 15 C-1.71125 15.90363281 -1.4225 16.80726563 -1.125 17.73828125 C-0.75375 18.91777344 -0.3825 20.09726563 0 21.3125 C0.556875 23.07013672 0.556875 23.07013672 1.125 24.86328125 C2 28 2 28 2 31 C2.7734375 30.99097656 3.546875 30.98195312 4.34375 30.97265625 C11.31547274 31.17110875 15.63125126 32.06875126 20.640625 37.078125 C22 39 22 39 22.5 42.4375 C22.335 43.283125 22.17 44.12875 22 45 C16.6116454 44.54335978 13.62387843 43.84546365 9 41 C4.05010425 39.90002317 -0.02851943 40.08687092 -5 41 C-4.34 39.35 -3.68 37.7 -3 36 C-3.66 35.38125 -4.32 34.7625 -5 34.125 C-7 32 -7 32 -7 30 C-5.35 29.67 -3.7 29.34 -2 29 C-1.79029441 24.85906302 -1.79029441 24.85906302 -3 21 C-3.04022391 18.6670134 -3.04320247 16.33293334 -3 14 C-0.35261084 12.5393715 0.89448334 12 4 12 C4 8.37 4 4.74 4 1 C2.68 0.67 1.36 0.34 0 0 Z " fill="#036AF0" transform="translate(373,120)"/>
<path d="M0 0 C2.77755387 6.58280267 2.29527673 13.52574225 2.25 20.5625 C2.25773437 21.76841797 2.26546875 22.97433594 2.2734375 24.21679688 C2.27085937 25.38404297 2.26828125 26.55128906 2.265625 27.75390625 C2.26336914 28.80908447 2.26111328 29.8642627 2.25878906 30.95141602 C1.90194175 35.15514468 1.19266669 38.76025436 -1.78125 41.8515625 C-4.51544112 43.26679523 -6.42993592 43.40030273 -9.5 43.375 C-10.90765625 43.38660156 -10.90765625 43.38660156 -12.34375 43.3984375 C-15.58282246 42.91257663 -16.79848733 42.44290661 -19 40 C-21.34595025 33.43878677 -21.33397986 26.9747184 -21.3125 20.0625 C-21.32861328 19.02931641 -21.34472656 17.99613281 -21.36132812 16.93164062 C-21.36530802 10.64738266 -20.99434751 4.65707083 -18 -1 C-12.55904734 -4.36820879 -5.17807473 -3.45204982 0 0 Z M-18 1 C-19.38277386 6.92817106 -19.29695264 12.85851683 -19.35009766 18.91992188 C-19.36670126 20.3068108 -19.39404992 21.69361263 -19.43212891 23.08007812 C-19.48702522 25.09453408 -19.50565698 27.10987463 -19.5234375 29.125 C-19.54325684 30.32382813 -19.56307617 31.52265625 -19.58349609 32.7578125 C-18.83280387 36.92902283 -17.26837664 38.39371875 -14 41 C-11.34326888 41.59750073 -11.34326888 41.59750073 -8.6875 41.3125 C-7.80449219 41.26738281 -6.92148437 41.22226562 -6.01171875 41.17578125 C-5.34785156 41.11777344 -4.68398438 41.05976563 -4 41 C-3.896875 40.360625 -3.79375 39.72125 -3.6875 39.0625 C-3.460625 38.381875 -3.23375 37.70125 -3 37 C-1.515 36.505 -1.515 36.505 0 36 C2.15300199 31.69399602 1.18496133 25.91704145 1.1875 21.1875 C1.20586914 19.40375977 1.20586914 19.40375977 1.22460938 17.58398438 C1.22654297 16.43607422 1.22847656 15.28816406 1.23046875 14.10546875 C1.23457764 13.05512451 1.23868652 12.00478027 1.24291992 10.92260742 C0.99264509 7.91151189 0.26818373 5.72579396 -1 3 C-3.47266765 3.34444881 -3.47266765 3.34444881 -6 4 C-6.33 4.66 -6.66 5.32 -7 6 C-8.32 5.67 -9.64 5.34 -11 5 C-12.31361698 7.62723396 -12.21253909 9.72610561 -12.31640625 12.6640625 C-12.35451416 13.6742041 -12.39262207 14.6843457 -12.43188477 15.72509766 C-12.47498779 17.01206543 -12.51809082 18.2990332 -12.5625 19.625 C-12.706875 23.70875 -12.85125 27.7925 -13 32 C-13.33 22.1 -13.66 12.2 -14 2 C-15.32 1.67 -16.64 1.34 -18 1 Z " fill="#2F7EDB" transform="translate(377,224)"/>
<path d="M0 0 C4.43782363 5.1774609 2.68439017 14.88729213 2.6875 21.25 C2.69974609 22.56871094 2.71199219 23.88742188 2.72460938 25.24609375 C2.72750977 27.15068359 2.72750977 27.15068359 2.73046875 29.09375 C2.73457764 30.25068359 2.73868652 31.40761719 2.74291992 32.59960938 C2.44244397 36.49643524 1.49586381 39.36668766 -0.78515625 42.53515625 C-4.39889208 45.09522878 -9.29431653 44.34811367 -13.5 43.75 C-16.1875 41.75 -16.1875 41.75 -17.5 39.75 C-16.84 39.75 -16.18 39.75 -15.5 39.75 C-15.17 38.1 -14.84 36.45 -14.5 34.75 C-13.84 35.08 -13.18 35.41 -12.5 35.75 C-12.83 37.73 -13.16 39.71 -13.5 41.75 C-8.055 41.255 -8.055 41.255 -2.5 40.75 C-2.5 39.1 -2.5 37.45 -2.5 35.75 C-1.51 35.255 -1.51 35.255 -0.5 34.75 C-0.42591413 30.65666095 -0.3714296 26.56358067 -0.33520508 22.46972656 C-0.32010642 21.07675378 -0.29962556 19.68382862 -0.27368164 18.29101562 C-0.23734878 16.29057115 -0.22188808 14.28978173 -0.20703125 12.2890625 C-0.1913208 11.08459473 -0.17561035 9.88012695 -0.15942383 8.63916016 C-0.27181396 7.6857373 -0.3842041 6.73231445 -0.5 5.75 C-1.49 5.09 -2.48 4.43 -3.5 3.75 C-2.84 5.07 -2.18 6.39 -1.5 7.75 C-2.49 7.75 -3.48 7.75 -4.5 7.75 C-4.17 17.32 -3.84 26.89 -3.5 36.75 C-6.14 37.08 -8.78 37.41 -11.5 37.75 C-12.61865755 34.10341523 -12.70370892 30.5963849 -12.81640625 26.796875 C-12.83718735 26.13665344 -12.85796844 25.47643188 -12.87937927 24.79620361 C-12.94450147 22.69756985 -13.00358502 20.59881628 -13.0625 18.5 C-13.10572079 17.07290453 -13.1493362 15.64582095 -13.19335938 14.21875 C-13.30014411 10.72929278 -13.40151566 7.23970247 -13.5 3.75 C-11.19 3.75 -8.88 3.75 -6.5 3.75 C-6.5 3.09 -6.5 2.43 -6.5 1.75 C-8.3871875 1.7190625 -8.3871875 1.7190625 -10.3125 1.6875 C-11.02019531 1.67589844 -11.72789062 1.66429687 -12.45703125 1.65234375 C-14.70305461 1.66736783 -14.70305461 1.66736783 -17.5 2.75 C-16.5 -0.25 -16.5 -0.25 -14.5 -1.5 C-9.49191169 -2.75202208 -4.63337962 -2.31668981 0 0 Z M-10.5 5.75 C-11.52628246 8.82884739 -11.62906515 10.9626363 -11.6328125 14.1875 C-11.63410156 15.24710938 -11.63539063 16.30671875 -11.63671875 17.3984375 C-11.63285156 18.50445312 -11.62898437 19.61046875 -11.625 20.75 C-11.62886719 21.85601562 -11.63273438 22.96203125 -11.63671875 24.1015625 C-11.63542969 25.16117188 -11.63414062 26.22078125 -11.6328125 27.3125 C-11.63168457 28.28316406 -11.63055664 29.25382812 -11.62939453 30.25390625 C-11.60444752 32.88114254 -11.60444752 32.88114254 -10.5 35.75 C-8.85 35.42 -7.2 35.09 -5.5 34.75 C-5.47108454 30.29168018 -5.45323019 25.83338431 -5.4375 21.375 C-5.42912109 20.10398438 -5.42074219 18.83296875 -5.41210938 17.5234375 C-5.40888672 16.31171875 -5.40566406 15.1 -5.40234375 13.8515625 C-5.39710693 12.73088379 -5.39187012 11.61020508 -5.38647461 10.45556641 C-5.31378534 7.78132657 -5.31378534 7.78132657 -6.5 5.75 C-7.82 5.75 -9.14 5.75 -10.5 5.75 Z " fill="#2776D9" transform="translate(260.5,223.25)"/>
<path d="M0 0 C1.32 0 2.64 0 4 0 C4.28875 0.7425 4.5775 1.485 4.875 2.25 C5.88608316 4.90355502 5.88608316 4.90355502 7.08203125 6.85546875 C8.21253063 9.49650772 8.10845071 11.21879969 7.8125 14.0625 C7.73644531 14.91972656 7.66039062 15.77695312 7.58203125 16.66015625 C6.89654194 19.41591529 6.34215259 20.40098116 4 22 C-1.12596843 22.88077786 -5.63860593 22.81683644 -10.125 20.125 C-12.85322855 17.03300764 -13.12009319 15.40652357 -13.0625 11.375 C-13.05347656 10.55773437 -13.04445313 9.74046875 -13.03515625 8.8984375 C-13.02355469 8.27195313 -13.01195312 7.64546875 -13 7 C-10.36 7 -7.72 7 -5 7 C-3.64560332 9.70879335 -3.93498549 12.00933268 -4 15 C-2.35 15 -0.7 15 1 15 C1.09038099 9.84828377 0.84681133 5.08086796 0 0 Z " fill="#086CE9" transform="translate(308,245)"/>
<path d="M0 0 C6.93 0 13.86 0 21 0 C21 2.31 21 4.62 21 7 C17.04 7 13.08 7 9 7 C9 10.63 9 14.26 9 18 C8.67 18 8.34 18 8 18 C8 14.04 8 10.08 8 6 C11.63 6 15.26 6 19 6 C19 4.35 19 2.7 19 1 C11.08 1.495 11.08 1.495 3 2 C3 15.86 3 29.72 3 44 C8.28 44 13.56 44 19 44 C19 42.35 19 40.7 19 39 C18.28972656 39.01160156 17.57945312 39.02320313 16.84765625 39.03515625 C15.92855469 39.04417969 15.00945312 39.05320312 14.0625 39.0625 C13.14597656 39.07410156 12.22945313 39.08570313 11.28515625 39.09765625 C9 39 9 39 8 38 C7.92755947 35.98035801 7.91622812 33.95832876 7.9375 31.9375 C7.94652344 30.83277344 7.95554687 29.72804687 7.96484375 28.58984375 C7.97644531 27.73519531 7.98804688 26.88054687 8 26 C8.33 26 8.66 26 9 26 C9 29.63 9 33.26 9 37 C12.96 37 16.92 37 21 37 C21 39.64 21 42.28 21 45 C14.07 45 7.14 45 0 45 C0 30.15 0 15.3 0 0 Z " fill="#3F89E3" transform="translate(448,222)"/>
<path d="M0 0 C0.33 1.65 0.66 3.3 1 5 C-0.98 5.66 -2.96 6.32 -5 7 C-5.33 17.56 -5.66 28.12 -6 39 C-7.32 38.34 -8.64 37.68 -10 37 C-10.66 37 -11.32 37 -12 37 C-12.04969106 32.83741853 -12.08585642 28.67499739 -12.10986328 24.51220703 C-12.11987856 23.09811391 -12.13349474 21.68404127 -12.15087891 20.27001953 C-12.17532559 18.22944054 -12.18652784 16.18913697 -12.1953125 14.1484375 C-12.20578613 12.92302246 -12.21625977 11.69760742 -12.22705078 10.43505859 C-11.99537517 6.93003085 -11.37270595 4.22667212 -10 1 C-6.78548731 -0.60725635 -3.56387464 -0.05748185 0 0 Z " fill="#0969E5" transform="translate(162,222)"/>
<path d="M0 0 C0.66 0 1.32 0 2 0 C1.67 3.63 1.34 7.26 1 11 C32.35 11 63.7 11 96 11 C96 9.35 96 7.7 96 6 C97 3.6875 97 3.6875 98 2 C98.99 2.495 98.99 2.495 100 3 C99.34 6.3 98.68 9.6 98 13 C65.33 13 32.66 13 -1 13 C-1 4 -1 4 0 0 Z " fill="#327BD5" transform="translate(255,170)"/>
<path d="M0 0 C1.32 0.66 2.64 1.32 4 2 C4 12.56 4 23.12 4 34 C3.34 33.34 2.68 32.68 2 32 C2.020625 32.804375 2.04125 33.60875 2.0625 34.4375 C2 37 2 37 1 38 C-0.85287502 38.07226502 -2.70833878 38.0838122 -4.5625 38.0625 C-5.57441406 38.05347656 -6.58632812 38.04445313 -7.62890625 38.03515625 C-8.41136719 38.02355469 -9.19382813 38.01195312 -10 38 C-10 36.68 -10 35.36 -10 34 C-5.05 33.505 -5.05 33.505 0 33 C-0.33 32.34 -0.66 31.68 -1 31 C-1.08527628 28.96767366 -1.10716135 26.93252994 -1.09765625 24.8984375 C-1.09443359 23.68671875 -1.09121094 22.475 -1.08789062 21.2265625 C-1.07951172 19.95554688 -1.07113281 18.68453125 -1.0625 17.375 C-1.05573242 15.456875 -1.05573242 15.456875 -1.04882812 13.5 C-1.03701203 10.33328708 -1.02053815 7.16666644 -1 4 C-0.34 3.67 0.32 3.34 1 3 C0.67 2.01 0.34 1.02 0 0 Z " fill="#0169F0" transform="translate(257,227)"/>
<path d="M0 0 C3.3 0 6.6 0 10 0 C10.08089542 2.77141717 10.14044062 5.54047819 10.1875 8.3125 C10.21263672 9.09818359 10.23777344 9.88386719 10.26367188 10.69335938 C10.27333984 11.45068359 10.28300781 12.20800781 10.29296875 12.98828125 C10.3086792 13.68477783 10.32438965 14.38127441 10.34057617 15.09887695 C9.90120805 17.55146447 8.75407213 18.29910784 7 20 C7 20.99 7 21.98 7 23 C5.35 23 3.7 23 2 23 C2 23.66 2 24.32 2 25 C-0.31 25 -2.62 25 -5 25 C-5.33 24.01 -5.66 23.02 -6 22 C-5.01 21.67 -4.02 21.34 -3 21 C-3 20.67 -3 20.34 -3 20 C0.465 19.505 0.465 19.505 4 19 C3.67 18.34 3.34 17.68 3 17 C2.73044167 14.66810655 2.55492623 12.33678493 2.37890625 9.99609375 C2.25386719 9.33738281 2.12882813 8.67867187 2 8 C1.34 7.67 0.68 7.34 0 7 C0 4.69 0 2.38 0 0 Z " fill="#156BD8" transform="translate(160,241)"/>
<path d="M0 0 C0.33 0 0.66 0 1 0 C1 14 1 28 1 42 C-1.31 42 -3.62 42 -6 42 C-7.21054653 38.36836041 -7.43307459 34.85174246 -7.6875 31.0625 C-7.74744141 30.34642578 -7.80738281 29.63035156 -7.86914062 28.89257812 C-8.12968467 25.04152304 -8.21848545 22.25547865 -6 19 C-5.01 19.33 -4.02 19.66 -3 20 C-2.67 19.01 -2.34 18.02 -2 17 C-1.34 17 -0.68 17 0 17 C0 11.39 0 5.78 0 0 Z " fill="#2579E1" transform="translate(498,225)"/>
<path d="M0 0 C0.97195313 -0.02900391 1.94390625 -0.05800781 2.9453125 -0.08789062 C3.87859375 -0.09626953 4.811875 -0.10464844 5.7734375 -0.11328125 C6.63114746 -0.12786377 7.48885742 -0.14244629 8.37255859 -0.1574707 C10.625 0.3125 10.625 0.3125 12.41650391 2.16723633 C13.86203747 4.73327743 13.86670491 6.41204107 13.625 9.3125 C12.635 9.3125 11.645 9.3125 10.625 9.3125 C10.625 8.6525 10.625 7.9925 10.625 7.3125 C8.64963255 7.66036708 8.64963255 7.66036708 6.625 8.3125 C6.295 8.9725 5.965 9.6325 5.625 10.3125 C6.285 10.3125 6.945 10.3125 7.625 10.3125 C7.295 13.6125 6.965 16.9125 6.625 20.3125 C5.965 20.3125 5.305 20.3125 4.625 20.3125 C3.635 15.6925 2.645 11.0725 1.625 6.3125 C-2.335 5.9825 -6.295 5.6525 -10.375 5.3125 C-10.705 3.9925 -11.035 2.6725 -11.375 1.3125 C-9.0029565 -1.0595435 -3.18332945 0.03141444 0 0 Z " fill="#438EED" transform="translate(352.375,110.6875)"/>
<path d="M0 0 C1.65 0.33 3.3 0.66 5 1 C6.02419624 4.38381418 6.12904436 7.4813678 6.1328125 11.0078125 C6.13410156 12.15894531 6.13539063 13.31007812 6.13671875 14.49609375 C6.13285156 15.69363281 6.12898438 16.89117187 6.125 18.125 C6.12886719 19.33027344 6.13273437 20.53554687 6.13671875 21.77734375 C6.13542969 22.92589844 6.13414062 24.07445312 6.1328125 25.2578125 C6.13168457 26.3111377 6.13055664 27.36446289 6.12939453 28.44970703 C6 31 6 31 5 33 C3.35 33 1.7 33 0 33 C0 26.4 0 19.8 0 13 C0.66 13 1.32 13 2 13 C2.33 12.34 2.66 11.68 3 11 C3.66 11 4.32 11 5 11 C5 9.68 5 8.36 5 7 C2.525 8.485 2.525 8.485 0 10 C-1.60339848 6.88228073 -2.18974141 5.60988311 -1.125 2.1875 C-0.75375 1.465625 -0.3825 0.74375 0 0 Z " fill="#0169F0" transform="translate(372,227)"/>
<path d="M0 0 C2.97 0 5.94 0 9 0 C9.32297455 6.05278224 9.52333984 10.78023727 6 16 C2.91111478 18.05925681 2.29064073 18.2390374 -1.1875 18.125 C-2.445625 18.08375 -3.70375 18.0425 -5 18 C-6.04449911 14.86650268 -5.93423645 14.01031744 -5 11 C-3.35 11 -1.7 11 0 11 C0 7.37 0 3.74 0 0 Z " fill="#1471E8" transform="translate(339,249)"/>
<path d="M0 0 C0.66 0.33 1.32 0.66 2 1 C2 4.63 2 8.26 2 12 C5.63 12 9.26 12 13 12 C13 13.98 13 15.96 13 18 C6.73 18 0.46 18 -6 18 C-6 8.55555556 -6 8.55555556 -3 4 C-2.01 3.67 -1.02 3.34 0 3 C0 2.01 0 1.02 0 0 Z " fill="#076BEC" transform="translate(218,248)"/>
<path d="M0 0 C12.87 0 25.74 0 39 0 C37.80906065 5.95469677 36.34580741 10.26857072 31.375 13.9375 C29 15 29 15 27 15 C28.12451727 12.0280615 29.22293791 9.66559313 31 7 C31 7.66 31 8.32 31 9 C31.66 8.67 32.32 8.34 33 8 C33.33 6.35 33.66 4.7 34 3 C24.1 3 14.2 3 4 3 C3.67 3.66 3.34 4.32 3 5 C3.99 5.33 4.98 5.66 6 6 C6 6.99 6 7.98 6 9 C6.99 9.33 7.98 9.66 9 10 C9 10.99 9 11.98 9 13 C7.68 12.34 6.36 11.68 5 11 C5 10.01 5 9.02 5 8 C4.34 8 3.68 8 3 8 C0 2.25 0 2.25 0 0 Z " fill="#3582DF" transform="translate(267,186)"/>
<path d="M0 0 C3.69663434 2.46442289 3.93533237 3.76609649 5 8 C5.25878906 11.26391602 5.25878906 11.26391602 5.265625 14.75390625 C5.26949219 16.65366211 5.26949219 16.65366211 5.2734375 18.59179688 C5.26570313 19.90212891 5.25796875 21.21246094 5.25 22.5625 C5.25773437 23.87669922 5.26546875 25.19089844 5.2734375 26.54492188 C5.27085937 27.81013672 5.26828125 29.07535156 5.265625 30.37890625 C5.26336914 31.5294751 5.26111328 32.68004395 5.25878906 33.86547852 C5.00192592 36.97667272 4.32352397 39.19227599 3 42 C2.67 42 2.34 42 2 42 C2.00523682 41.02651611 2.01047363 40.05303223 2.01586914 39.05004883 C2.03402117 35.425221 2.04546923 31.80039717 2.05493164 28.17553711 C2.05994856 26.60912398 2.06676362 25.0427155 2.07543945 23.47631836 C2.08762094 21.21987761 2.09325481 18.96349898 2.09765625 16.70703125 C2.10281754 16.01100296 2.10797882 15.31497467 2.11329651 14.59785461 C2.11371546 10.93529848 1.87148095 7.56131142 1 4 C-0.32 3.67 -1.64 3.34 -3 3 C-3 2.34 -3 1.68 -3 1 C-8.79012933 1.61022291 -8.79012933 1.61022291 -14 4 C-15.5274639 7.0549278 -15.23991832 10.2763314 -15.31640625 13.6328125 C-15.33718735 14.38464813 -15.35796844 15.13648376 -15.37937927 15.91110229 C-15.44482705 18.31564085 -15.50373738 20.72028967 -15.5625 23.125 C-15.60568977 24.75391771 -15.64930421 26.38282422 -15.69335938 28.01171875 C-15.80050351 32.00769915 -15.90178433 36.00379059 -16 40 C-16.33 40 -16.66 40 -17 40 C-17.07413521 34.92801112 -17.12859451 29.85633732 -17.16479492 24.78393555 C-17.17988516 23.05829373 -17.20035975 21.33269028 -17.22631836 19.60717773 C-17.26269209 17.12734512 -17.27972359 14.64801936 -17.29296875 12.16796875 C-17.30845261 11.39599655 -17.32393646 10.62402435 -17.33988953 9.82865906 C-17.34157273 4.47639616 -17.34157273 4.47639616 -15.61450195 2.06762695 C-10.43579233 -1.35691519 -5.94330415 -1.3800931 0 0 Z " fill="#3B85DD" transform="translate(405,222)"/>
<path d="M0 0 C7.92 0 15.84 0 24 0 C24 2.31 24 4.62 24 7 C23.34 7 22.68 7 22 7 C22 5.02 22 3.04 22 1 C17.545 1.495 17.545 1.495 13 2 C13 2.66 13 3.32 13 4 C12.34 4 11.68 4 11 4 C11 4.66 11 5.32 11 6 C10.01 6.495 10.01 6.495 9 7 C8.67 19.54 8.34 32.08 8 45 C7.67 45 7.34 45 7 45 C7 32.46 7 19.92 7 7 C4.69 7 2.38 7 0 7 C0 4.69 0 2.38 0 0 Z " fill="#579BEA" transform="translate(417,222)"/>
<path d="M0 0 C5.94 0 11.88 0 18 0 C18.99 0.99 19.98 1.98 21 3 C14.73 2.34 8.46 1.68 2 1 C2 14.86 2 28.72 2 43 C3.98 43 5.96 43 8 43 C8 38.05 8 33.1 8 28 C8.33 28 8.66 28 9 28 C9 33.61 9 39.22 9 45 C6.03 45 3.06 45 0 45 C0 30.15 0 15.3 0 0 Z " fill="#4F8DDE" transform="translate(477,222)"/>
<path d="M0 0 C0.33 0 0.66 0 1 0 C1 1.98 1 3.96 1 6 C1.66 6 2.32 6 3 6 C3.27565727 8.60376274 3.52127265 11.20455968 3.75 13.8125 C3.83121094 14.55048828 3.91242188 15.28847656 3.99609375 16.04882812 C4.171875 18.20703125 4.171875 18.20703125 4 22 C2.140625 24.01171875 2.140625 24.01171875 0 25 C-0.66 25 -1.32 25 -2 25 C-1.67 26.32 -1.34 27.64 -1 29 C-0.34 28.67 0.32 28.34 1 28 C3.00800456 28.28112064 5.01014051 28.61067967 7 29 C4 31 4 31 2 31 C1.8453125 31.9590625 1.8453125 31.9590625 1.6875 32.9375 C1.460625 33.618125 1.23375 34.29875 1 35 C-0.485 35.495 -0.485 35.495 -2 36 C-2.33 36.66 -2.66 37.32 -3 38 C-3.144375 37.360625 -3.28875 36.72125 -3.4375 36.0625 C-3.81007181 34.02454854 -3.81007181 34.02454854 -5 33 C-5 32.01 -5 31.02 -5 30 C-5.66 30 -6.32 30 -7 30 C-7.2475 30.78375 -7.495 31.5675 -7.75 32.375 C-9.15389099 35.32317108 -10.00675737 35.9024777 -13 37 C-11.43970401 32.00705282 -8.54004904 27.8047963 -5 24 C-3.41058594 23.20529297 -3.41058594 23.20529297 -1.7890625 22.39453125 C1.17415332 20.36178472 1.17415332 20.36178472 1.38867188 17.81030273 C1.36599823 15.09178439 1.16273519 12.45319636 0.875 9.75 C0.80023438 8.81414062 0.72546875 7.87828125 0.6484375 6.9140625 C0.45998382 4.60550493 0.24302519 2.30334582 0 0 Z " fill="#3082E7" transform="translate(358,134)"/>
<path d="M0 0 C7.66742597 4.81776765 7.66742597 4.81776765 9 10 C9.66 10 10.32 10 11 10 C13.16848358 14.51767413 14.6823277 17.88254225 14 23 C12.5 25.375 12.5 25.375 11 27 C11.05220703 26.14728516 11.05220703 26.14728516 11.10546875 25.27734375 C11.30360761 19.62566857 10.47930333 16.06191096 8 11 C8 10.34 8 9.68 8 9 C7.01 9.66 6.02 10.32 5 11 C5.165 11.66 5.33 12.32 5.5 13 C6.12183299 16.73099794 6.06408926 20.21873378 6 24 C5.01 24.33 4.02 24.66 3 25 C2.01 24.34 1.02 23.68 0 23 C1.32 22.67 2.64 22.34 4 22 C3.619826 16.55083937 1.97730371 14.61573065 -2 11 C-3.71884699 9.03893067 -5.35339876 7.02296724 -7 5 C-6.34 4.67 -5.68 4.34 -5 4 C-5 4.66 -5 5.32 -5 6 C-3.68 6 -2.36 6 -1 6 C-1 7.32 -1 8.64 -1 10 C0.32 10.33 1.64 10.66 3 11 C3.33 9.02 3.66 7.04 4 5 C3.01 5 2.02 5 1 5 C0.67 3.35 0.34 1.7 0 0 Z " fill="#1670DF" transform="translate(304,236)"/>
<path d="M0 0 C1.16015625 0.11794922 1.16015625 0.11794922 2.34375 0.23828125 C4.5 0.6875 4.5 0.6875 7.5 2.6875 C8.50496852 5.70240557 8.60335303 7.72931692 8.5625 10.875 C8.55347656 11.77605469 8.54445313 12.67710937 8.53515625 13.60546875 C8.52355469 14.29253906 8.51195312 14.97960937 8.5 15.6875 C6.85 15.6875 5.2 15.6875 3.5 15.6875 C1.5 10.0625 1.5 10.0625 1.5 6.6875 C-0.48 6.6875 -2.46 6.6875 -4.5 6.6875 C-3.51 6.0275 -2.52 5.3675 -1.5 4.6875 C-1.17 3.6975 -0.84 2.7075 -0.5 1.6875 C-3.8 2.3475 -7.1 3.0075 -10.5 3.6875 C-6.83545855 0.02295855 -4.94751158 -0.55247213 0 0 Z " fill="#247AE3" transform="translate(338.5,221.3125)"/>
<path d="M0 0 C0.33 4.29 0.66 8.58 1 13 C1.99 13 2.98 13 4 13 C3.67 14.98 3.34 16.96 3 19 C1.68 18.67 0.36 18.34 -1 18 C-1 16.68 -1 15.36 -1 14 C-2.32 14 -3.64 14 -5 14 C-5 13.34 -5 12.68 -5 12 C-5.66 12 -6.32 12 -7 12 C-7 8.04 -7 4.08 -7 0 C-3 -1 -3 -1 0 0 Z " fill="#0569EC" transform="translate(304,228)"/>
<path d="M0 0 C0.33 0 0.66 0 1 0 C1.02505615 0.89307861 1.0501123 1.78615723 1.07592773 2.70629883 C1.17110186 6.02185454 1.27033283 9.33723729 1.37231445 12.65258789 C1.41560793 14.08711003 1.45728699 15.52168184 1.49731445 16.95629883 C1.55515267 19.0191952 1.61880753 21.08184283 1.68359375 23.14453125 C1.72025146 24.38565674 1.75690918 25.62678223 1.79467773 26.90551758 C1.87144121 30.03553347 1.87144121 30.03553347 3 33 C7.29 33.66 11.58 34.32 16 35 C16.33 33.35 16.66 31.7 17 30 C17.99 30 18.98 30 20 30 C20.33 29.34 20.66 28.68 21 28 C20.5113941 33.49681635 20.5113941 33.49681635 18.296875 35.67578125 C15.50405752 37.28592602 13.70791198 37.40143884 10.5 37.375 C9.09234375 37.38660156 9.09234375 37.38660156 7.65625 37.3984375 C4.41717754 36.91257663 3.20151267 36.44290661 1 34 C-1.4299559 27.30037395 -1.26841236 20.68566846 -1.1875 13.625 C-1.18685547 12.53316406 -1.18621094 11.44132813 -1.18554688 10.31640625 C-1.14074248 2.28148496 -1.14074248 2.28148496 0 0 Z " fill="#3985E0" transform="translate(357,230)"/>
<path d="M0 0 C1.79244141 0.01740234 1.79244141 0.01740234 3.62109375 0.03515625 C5.41740234 0.04869141 5.41740234 0.04869141 7.25 0.0625 C8.17683594 0.07410156 9.10367187 0.08570313 10.05859375 0.09765625 C10.05859375 2.73765625 10.05859375 5.37765625 10.05859375 8.09765625 C5.43859375 8.09765625 0.81859375 8.09765625 -3.94140625 8.09765625 C-3.94140625 0.13085678 -3.94140625 0.13085678 0 0 Z " fill="#046AEB" transform="translate(275.94140625,239.90234375)"/>
<path d="M0 0 C0 9.24 0 18.48 0 28 C-1.32 28 -2.64 28 -4 28 C-4 19.09 -4 10.18 -4 1 C-1 0 -1 0 0 0 Z " fill="#016AF1" transform="translate(431,237)"/>
<path d="M0 0 C1.65 0 3.3 0 5 0 C5.33 4.29 5.66 8.58 6 13 C1 15 1 15 -2 15 C-1.71125 15.90363281 -1.4225 16.80726563 -1.125 17.73828125 C-0.75375 18.91777344 -0.3825 20.09726563 0 21.3125 C0.556875 23.07013672 0.556875 23.07013672 1.125 24.86328125 C2 28 2 28 2 31 C3.98 31 5.96 31 8 31 C5.42786866 32.61949011 4.32330841 33.04408751 1.25 32.625 C0.5075 32.41875 -0.235 32.2125 -1 32 C-1 32.99 -1 33.98 -1 35 C-2.875 34.75 -2.875 34.75 -5 34 C-6.25 31.9375 -6.25 31.9375 -7 30 C-5.35 29.67 -3.7 29.34 -2 29 C-1.79029441 24.85906302 -1.79029441 24.85906302 -3 21 C-3.04022391 18.6670134 -3.04320247 16.33293334 -3 14 C-0.35261084 12.5393715 0.89448334 12 4 12 C4 8.37 4 4.74 4 1 C2.68 0.67 1.36 0.34 0 0 Z " fill="#2F7FE2" transform="translate(373,120)"/>
<path d="M0 0 C0.66 0 1.32 0 2 0 C2.33 0.66 2.66 1.32 3 2 C4.32 2 5.64 2 7 2 C7 2.99 7 3.98 7 5 C7.99 5 8.98 5 10 5 C10.33 5.66 10.66 6.32 11 7 C11.66 7.33 12.32 7.66 13 8 C11.88671875 9.48828125 11.88671875 9.48828125 10 11 C7.08203125 11.29296875 7.08203125 11.29296875 3.8125 11.1875 C2.72582031 11.16042969 1.63914063 11.13335937 0.51953125 11.10546875 C-0.72763672 11.05326172 -0.72763672 11.05326172 -2 11 C-2.33 10.01 -2.66 9.02 -3 8 C-3.99 7.67 -4.98 7.34 -6 7 C-6.33 5.35 -6.66 3.7 -7 2 C-6.67 2.66 -6.34 3.32 -6 4 C-5.01 4.2165625 -5.01 4.2165625 -4 4.4375 C-3.34 4.623125 -2.68 4.80875 -2 5 C-1.67 5.99 -1.34 6.98 -1 8 C-0.34 8 0.32 8 1 8 C0.67 5.36 0.34 2.72 0 0 Z " fill="#2C7DE6" transform="translate(187,256)"/>
<path d="M0 0 C1.32 0.33 2.64 0.66 4 1 C4.05802698 4.43742918 4.09360486 7.87473253 4.125 11.3125 C4.15013672 12.77719727 4.15013672 12.77719727 4.17578125 14.27148438 C4.18222656 15.20927734 4.18867188 16.14707031 4.1953125 17.11328125 C4.20578613 17.97735596 4.21625977 18.84143066 4.22705078 19.73168945 C4 22 4 22 2 25 C0 23 0 23 -0.22705078 20.66162109 C-0.21657715 19.70852051 -0.20610352 18.75541992 -0.1953125 17.7734375 C-0.18886719 16.7421875 -0.18242187 15.7109375 -0.17578125 14.6484375 C-0.15902344 13.56820312 -0.14226562 12.48796875 -0.125 11.375 C-0.11597656 10.28703125 -0.10695313 9.1990625 -0.09765625 8.078125 C-0.07403409 5.38519848 -0.04109556 2.69270745 0 0 Z " fill="#006AF2" transform="translate(327,234)"/>
<path d="M0 0 C1.9375 0.6875 1.9375 0.6875 2.9375 2.6875 C3.00746014 4.39452735 3.02190154 6.10418003 3 7.8125 C2.99097656 8.72257813 2.98195312 9.63265625 2.97265625 10.5703125 C2.96105469 11.26898438 2.94945312 11.96765625 2.9375 12.6875 C0.2975 12.6875 -2.3425 12.6875 -5.0625 12.6875 C-5.2145 3.5675 -5.2145 3.5675 -4.0625 0.6875 C-2.0625 -0.3125 -2.0625 -0.3125 0 0 Z " fill="#2574D5" transform="translate(168.0625,225.3125)"/>
<path d="M0 0 C3.4372166 -0.11604679 6.87393086 -0.18719508 10.3125 -0.25 C11.28896484 -0.28351563 12.26542969 -0.31703125 13.27148438 -0.3515625 C14.20927734 -0.36445312 15.14707031 -0.37734375 16.11328125 -0.390625 C16.97735596 -0.41157227 17.84143066 -0.43251953 18.73168945 -0.45410156 C21 0 21 0 22.79370117 1.85253906 C24.23570979 4.41961208 24.24165373 6.10015529 24 9 C23.01 9 22.02 9 21 9 C20.67 7.02 20.34 5.04 20 3 C17.03 3 14.06 3 11 3 C11 3.33 11 3.66 11 4 C7.04 4 3.08 4 -1 4 C-0.67 2.68 -0.34 1.36 0 0 Z " fill="#3784E1" transform="translate(342,111)"/>
<path d="M0 0 C1.32 0 2.64 0 4 0 C4.28875 0.7425 4.5775 1.485 4.875 2.25 C5.88463037 4.92833391 5.88463037 4.92833391 7.1875 6.9375 C8.67923981 10.72422413 7.23959532 14.28121405 6 18 C5.01 17.67 4.02 17.34 3 17 C1.82877141 11.34853777 0.74660712 5.72398793 0 0 Z " fill="#036AEC" transform="translate(308,245)"/>
<path d="M0 0 C0.33 0 0.66 0 1 0 C1.33 8.58 1.66 17.16 2 26 C-0.475 25.01 -0.475 25.01 -3 24 C-3.05380578 21.20807795 -3.09357669 18.4171859 -3.125 15.625 C-3.14175781 14.8309375 -3.15851563 14.036875 -3.17578125 13.21875 C-3.19335473 11.14507985 -3.10335168 9.07116759 -3 7 C-2.34 6.34 -1.68 5.68 -1 5 C-0.35232207 2.42938689 -0.35232207 2.42938689 0 0 Z " fill="#0269F4" transform="translate(154,235)"/>
<path d="M0 0 C0.99 0 1.98 0 3 0 C4.38529821 5.45461169 5.2396943 10.36718401 5 16 C3.02 16 1.04 16 -1 16 C-1.02701408 13.89590361 -1.04640223 11.79170822 -1.0625 9.6875 C-1.07410156 8.51574219 -1.08570313 7.34398437 -1.09765625 6.13671875 C-1 3 -1 3 0 0 Z " fill="#046AF0" transform="translate(494,249)"/>
<path d="M0 0 C0.99 0.99 1.98 1.98 3 3 C4.32 2.34 5.64 1.68 7 1 C7 2.32 7 3.64 7 5 C6.34 5 5.68 5 5 5 C4.67 5.99 4.34 6.98 4 8 C3.67 8 3.34 8 3 8 C2.67 14.27 2.34 20.54 2 27 C-0.31 27 -2.62 27 -5 27 C-4.67 26.34 -4.34 25.68 -4 25 C-3.01 25 -2.02 25 -1 25 C-0.67 16.75 -0.34 8.5 0 0 Z " fill="#1497F3" transform="translate(370,233)"/>
<path d="M0 0 C1.43836751 0.11458693 2.87570966 0.24209116 4.3125 0.375 C5.51326172 0.47941406 5.51326172 0.47941406 6.73828125 0.5859375 C9 1 9 1 12 3 C12 3.66 12 4.32 12 5 C10.35 5 8.7 5 7 5 C6.67 6.65 6.34 8.3 6 10 C5.67 9.34 5.34 8.68 5 8 C3.68 8.33 2.36 8.66 1 9 C0.67 18.24 0.34 27.48 0 37 C-0.33 37 -0.66 37 -1 37 C-1.04939115 32.90661348 -1.08571501 28.81334202 -1.10986328 24.71972656 C-1.11992877 23.32679219 -1.13358234 21.93387898 -1.15087891 20.54101562 C-1.1751022 18.5404564 -1.18540814 16.53974385 -1.1953125 14.5390625 C-1.20578613 13.33459473 -1.21625977 12.13012695 -1.22705078 10.88916016 C-1 8 -1 8 1 6 C2.32 6 3.64 6 5 6 C4.80528889 4.05000871 4.80528889 4.05000871 4 2 C1.99786055 0.8529475 1.99786055 0.8529475 0 0 Z " fill="#3A81D6" transform="translate(157,221)"/>
<path d="M0 0 C0.33 0 0.66 0 1 0 C1 6.93 1 13.86 1 21 C5.01429445 21.66904908 8.84194443 22.21821477 12.875 22.5625 C14.32519531 22.68818359 14.32519531 22.68818359 15.8046875 22.81640625 C16.89136719 22.90728516 16.89136719 22.90728516 18 23 C17.34 23.99 16.68 24.98 16 26 C13.3203125 26.3984375 13.3203125 26.3984375 10.125 26.375 C9.07570313 26.38273437 8.02640625 26.39046875 6.9453125 26.3984375 C3.59489799 25.9451984 2.39160996 25.34941255 0 23 C-0.45410156 20.5480957 -0.45410156 20.5480957 -0.390625 17.67578125 C-0.37773437 16.64775391 -0.36484375 15.61972656 -0.3515625 14.56054688 C-0.31804687 13.48869141 -0.28453125 12.41683594 -0.25 11.3125 C-0.23195313 10.22904297 -0.21390625 9.14558594 -0.1953125 8.02929688 C-0.14813508 5.35197854 -0.08232249 2.67643091 0 0 Z " fill="#2477E4" transform="translate(389,241)"/>
<path d="M0 0 C1.65 0 3.3 0 5 0 C5 5.61 5 11.22 5 17 C2 16 2 16 1 15 C0.79011244 13.58908915 0.63168764 12.17034524 0.5 10.75 C0.23866488 8.10292819 -0.08144969 5.60904149 -0.625 3 C-0.74875 2.34 -0.8725 1.68 -1 1 C-0.67 0.67 -0.34 0.34 0 0 Z " fill="#026AF0" transform="translate(164,243)"/>
<path d="M0 0 C2 1.125 2 1.125 4 3 C4.25 6.1875 4.25 6.1875 4 9 C-1.3883546 8.54335978 -4.37612157 7.84546365 -9 5 C-13.94989575 3.90002317 -18.02851943 4.08687092 -23 5 C-22.67 4.01 -22.34 3.02 -22 2 C-20.083412 1.97287847 -18.1667127 1.95354903 -16.25 1.9375 C-14.64898437 1.92009766 -14.64898437 1.92009766 -13.015625 1.90234375 C-10.46631499 1.98489913 -8.42066409 2.25382442 -6 3 C-6 3.66 -6 4.32 -6 5 C-2.535 4.505 -2.535 4.505 1 4 C0.67 2.68 0.34 1.36 0 0 Z " fill="#3C88E4" transform="translate(391,156)"/>
<path d="M0 0 C1.65 0.33 3.3 0.66 5 1 C6.03974499 4.41065139 6.11508506 7.52264842 6.09765625 11.078125 C6.09443359 12.23828125 6.09121094 13.3984375 6.08789062 14.59375 C6.07951172 15.8003125 6.07113281 17.006875 6.0625 18.25 C6.05798828 19.47203125 6.05347656 20.6940625 6.04882812 21.953125 C6.03704815 24.96879946 6.02059853 27.98437498 6 31 C5.67 31 5.34 31 5 31 C5 23.08 5 15.16 5 7 C2.525 8.485 2.525 8.485 0 10 C-1.60339848 6.88228073 -2.18974141 5.60988311 -1.125 2.1875 C-0.75375 1.465625 -0.3825 0.74375 0 0 Z " fill="#0A6BE5" transform="translate(372,227)"/>
<path d="M0 0 C0.33 0 0.66 0 1 0 C1 3.63 1 7.26 1 11 C4.96 11 8.92 11 13 11 C13 13.64 13 16.28 13 19 C6.4 19 -0.2 19 -7 19 C-7 17.35 -7 15.7 -7 14 C-6.67 15.32 -6.34 16.64 -6 18 C-0.39 18 5.22 18 11 18 C11 16.35 11 14.7 11 13 C10.28972656 13.01160156 9.57945312 13.02320313 8.84765625 13.03515625 C7.92855469 13.04417969 7.00945312 13.05320312 6.0625 13.0625 C5.14597656 13.07410156 4.22945313 13.08570313 3.28515625 13.09765625 C1 13 1 13 0 12 C-0.07244053 9.98035801 -0.08377188 7.95832876 -0.0625 5.9375 C-0.05347656 4.83277344 -0.04445313 3.72804687 -0.03515625 2.58984375 C-0.02355469 1.73519531 -0.01195312 0.88054687 0 0 Z " fill="#3A80D5" transform="translate(456,248)"/>
<path d="M0 0 C1.98 0 3.96 0 6 0 C6.66 2.64 7.32 5.28 8 8 C9.65 8.33 11.3 8.66 13 9 C13 6.69 13 4.38 13 2 C13.33 2 13.66 2 14 2 C14 4.64 14 7.28 14 10 C11.03 10 8.06 10 5 10 C4.67 7.36 4.34 4.72 4 2 C3.01 1.67 2.02 1.34 1 1 C0.67 10.57 0.34 20.14 0 30 C-0.33 30 -0.66 30 -1 30 C-1.33 20.76 -1.66 11.52 -2 2 C-1.34 2 -0.68 2 0 2 C0 1.34 0 0.68 0 0 Z " fill="#6FAAEE" transform="translate(334,228)"/>
<path d="M0 0 C5.94 0 11.88 0 18 0 C18 0.66 18 1.32 18 2 C15.69 2 13.38 2 11 2 C11.33 2.99 11.66 3.98 12 5 C10.56359829 5.19573608 9.12580496 5.38127816 7.6875 5.5625 C6.88699219 5.66691406 6.08648437 5.77132812 5.26171875 5.87890625 C3 6 3 6 0 5 C0 3.35 0 1.7 0 0 Z " fill="#066AE9" transform="translate(213,223)"/>
<path d="M0 0 C2.97 0 5.94 0 9 0 C8.55915368 5.51057896 7.19780257 8.54245702 4 13 C3.30686092 14.65583225 2.63525576 16.32110979 2 18 C1.34 18.99 0.68 19.98 0 21 C-0.66 21 -1.32 21 -2 21 C-1.45829987 16.47914461 -0.29789011 13.20702308 1.9375 9.25 C2.46214844 8.30640625 2.98679687 7.3628125 3.52734375 6.390625 C5 4 5 4 7 2 C4.69 1.67 2.38 1.34 0 1 C0 0.67 0 0.34 0 0 Z " fill="#5195E8" transform="translate(257,149)"/>
<path d="M0 0 C0.66 0 1.32 0 2 0 C2.04962653 4.03845412 2.08582632 8.07678887 2.10986328 12.11547852 C2.11988926 13.48790583 2.13351356 14.86031195 2.15087891 16.23266602 C2.17527627 18.21100527 2.18544484 20.18950367 2.1953125 22.16796875 C2.20578613 23.35672607 2.21625977 24.5454834 2.22705078 25.77026367 C2.00370033 28.94736386 1.36116639 31.14343455 0 34 C-0.33 34 -0.66 34 -1 34 C-0.67 22.78 -0.34 11.56 0 0 Z " fill="#5697E3" transform="translate(408,230)"/>
<path d="M0 0 C-0.33 0.66 -0.66 1.32 -1 2 C-1.763125 1.690625 -2.52625 1.38125 -3.3125 1.0625 C-8.17314841 -0.33802581 -12.96858173 -0.65979734 -18 -1 C-18 -0.34 -18 0.32 -18 1 C-18.66 1.66 -19.32 2.32 -20 3 C-20.7115625 3.804375 -20.7115625 3.804375 -21.4375 4.625 C-23 6 -23 6 -26 6 C-28.20142332 8.4390706 -28.20142332 8.4390706 -30 11 C-29.8125 8.1875 -29.8125 8.1875 -29 5 C-26.6875 3.375 -26.6875 3.375 -24 2 C-23.38125 1.29875 -22.7625 0.5975 -22.125 -0.125 C-16.50215123 -5.08633715 -6.17182464 -3.4133116 0 0 Z " fill="#468BE1" transform="translate(388,166)"/>
<path d="M0 0 C0.99 0 1.98 0 3 0 C3 0.99 3 1.98 3 3 C3.598125 3.28875 4.19625 3.5775 4.8125 3.875 C7 5 7 5 10 7 C12.4735662 7.49353093 12.4735662 7.49353093 15.125 7.6875 C16.01445312 7.77386719 16.90390625 7.86023438 17.8203125 7.94921875 C18.89925781 7.97435547 18.89925781 7.97435547 20 8 C20.33 7.67 20.66 7.34 21 7 C23.33297433 6.95907063 25.66705225 6.95758277 28 7 C23.60322383 10.70413335 19.66300322 11.26697015 14 11 C8.91448701 9.77221186 5.08886063 8.08886063 1.375 4.375 C0 2 0 2 0 0 Z " fill="#4385DF" transform="translate(359,192)"/>
<path d="M0 0 C2.64 0 5.28 0 8 0 C8.33 2.31 8.66 4.62 9 7 C7.68 7.33 6.36 7.66 5 8 C5 7.34 5 6.68 5 6 C4.01 6 3.02 6 2 6 C1.34 6.99 0.68 7.98 0 9 C0 6.03 0 3.06 0 0 Z " fill="#2E85E7" transform="translate(295,252)"/>
<path d="M0 0 C0.66 0.33 1.32 0.66 2 1 C1.67 2.98 1.34 4.96 1 7 C6.445 6.505 6.445 6.505 12 6 C12 4.35 12 2.7 12 1 C12.66 0.67 13.32 0.34 14 0 C14.66 0.66 15.32 1.32 16 2 C15.77145178 4.3616649 15.21961604 5.70954008 13.7890625 7.6015625 C10.69364153 10.02112737 7.39304492 9.45617627 3.609375 9.37109375 C1 9 1 9 -1.6875 7 C-2.120625 6.34 -2.55375 5.68 -3 5 C-2.34 5 -1.68 5 -1 5 C-0.67 3.35 -0.34 1.7 0 0 Z " fill="#2375DB" transform="translate(246,258)"/>
<path d="M0 0 C1.8871875 0.061875 1.8871875 0.061875 3.8125 0.125 C4.1425 1.775 4.4725 3.425 4.8125 5.125 C0.99387244 6.60037883 -1.26595282 7.38549731 -5.1875 6.125 C-6.1775 6.62 -6.1775 6.62 -7.1875 7.125 C-7.375 4.75 -7.375 4.75 -7.1875 2.125 C-4.09861478 0.06574319 -3.47814073 -0.1140374 0 0 Z " fill="#1B72E3" transform="translate(158.1875,221.875)"/>
<path d="M0 0 C2.97 0 5.94 0 9 0 C9.3690205 10.55808656 9.3690205 10.55808656 7 15 C6.67 15 6.34 15 6 15 C5.9727585 13.58344207 5.95349533 12.16672955 5.9375 10.75 C5.92589844 9.96109375 5.91429687 9.1721875 5.90234375 8.359375 C5.99614694 6.09308998 6.36758937 4.1711105 7 2 C5.35 2 3.7 2 2 2 C2 4.31 2 6.62 2 9 C1.34 9 0.68 9 0 9 C0 6.03 0 3.06 0 0 Z " fill="#4585D3" transform="translate(339,249)"/>
<path d="M0 0 C8.25 0 16.5 0 25 0 C24.67 0.99 24.34 1.98 24 3 C16.08 3 8.16 3 0 3 C0 2.01 0 1.02 0 0 Z " fill="#5395E8" transform="translate(322,170)"/>
<path d="M0 0 C1.79244141 0.01740234 1.79244141 0.01740234 3.62109375 0.03515625 C5.41740234 0.04869141 5.41740234 0.04869141 7.25 0.0625 C8.17683594 0.07410156 9.10367187 0.08570313 10.05859375 0.09765625 C10.05859375 2.73765625 10.05859375 5.37765625 10.05859375 8.09765625 C5.43859375 8.09765625 0.81859375 8.09765625 -3.94140625 8.09765625 C-3.94140625 0.13085678 -3.94140625 0.13085678 0 0 Z M-0.94140625 1.09765625 C-0.94140625 2.74765625 -0.94140625 4.39765625 -0.94140625 6.09765625 C0.06695437 7.33032973 0.06695437 7.33032973 2.125 7.1953125 C2.94871094 7.18371094 3.77242188 7.17210937 4.62109375 7.16015625 C5.86052734 7.14662109 5.86052734 7.14662109 7.125 7.1328125 C8.08212891 7.11541016 8.08212891 7.11541016 9.05859375 7.09765625 C9.05859375 5.11765625 9.05859375 3.13765625 9.05859375 1.09765625 C5.75859375 1.09765625 2.45859375 1.09765625 -0.94140625 1.09765625 Z " fill="#4E8ED9" transform="translate(275.94140625,239.90234375)"/>
<path d="M0 0 C2 1.375 2 1.375 4 3 C4 3.66 4 4.32 4 5 C4.99 5 5.98 5 7 5 C5.43551329 10.6143991 3.83604813 15.86810338 1 21 C-0.45047396 18.09905209 0.54643197 16.44027404 1.4375 13.375 C1.86869141 11.87066406 1.86869141 11.87066406 2.30859375 10.3359375 C2.53675781 9.56507813 2.76492187 8.79421875 3 8 C2.34 8 1.68 8 1 8 C0.26919734 6.02253397 -0.39421747 4.01927511 -1 2 C-0.67 1.34 -0.34 0.68 0 0 Z " fill="#3985E6" transform="translate(222,231)"/>
<path d="M0 0 C1.91796875 0.71484375 1.91796875 0.71484375 4 2 C4.86328125 4.12890625 4.86328125 4.12890625 5.3125 6.5625 C5.47363281 7.36816406 5.63476562 8.17382812 5.80078125 9.00390625 C5.89939453 9.99197266 5.89939453 9.99197266 6 11 C5 12 5 12 3.15234375 12.09765625 C1.1015625 12.06510417 -0.94921875 12.03255208 -3 12 C-3.0825 11.21625 -3.165 10.4325 -3.25 9.625 C-3.72806339 6.85250896 -3.72806339 6.85250896 -6.0625 5.6875 C-6.701875 5.460625 -7.34125 5.23375 -8 5 C-5.625 4.375 -5.625 4.375 -3 4 C-2.34 4.66 -1.68 5.32 -1 6 C-1.375 8.125 -1.375 8.125 -2 10 C-0.02 10 1.96 10 4 10 C3.67 7.69 3.34 5.38 3 3 C2.01 2.67 1.02 2.34 0 2 C0 1.34 0 0.68 0 0 Z " fill="#4385D5" transform="translate(312,223)"/>
<path d="M0 0 C2.86336051 -0.23861338 4.60734493 -0.20193689 7.1875 1.125 C9.5084683 3.52600169 10.14875108 5.80781657 11 9 C8.36 9 5.72 9 3 9 C3.2475 8.4225 3.495 7.845 3.75 7.25 C3.87375 6.13625 3.87375 6.13625 4 5 C2.12491838 2.7914234 2.12491838 2.7914234 0 1 C0 0.67 0 0.34 0 0 Z " fill="#2178E9" transform="translate(382,152)"/>
<path d="M0 0 C0.33 0 0.66 0 1 0 C1 1.98 1 3.96 1 6 C1.66 6 2.32 6 3 6 C3.33 11.28 3.66 16.56 4 22 C-2.75 26 -2.75 26 -5 26 C-5 25.34 -5 24.68 -5 24 C-4.00742187 23.51015625 -3.01484375 23.0203125 -1.9921875 22.515625 C1.16787162 20.40135849 1.16787162 20.40135849 1.40136719 17.80273438 C1.36525717 15.08932422 1.16221773 12.44833503 0.875 9.75 C0.80023438 8.81414062 0.72546875 7.87828125 0.6484375 6.9140625 C0.45998382 4.60550493 0.24302519 2.30334582 0 0 Z " fill="#428DE0" transform="translate(358,134)"/>
<path d="M0 0 C3.96388638 -0.07622858 7.1273408 0.0318352 11 1 C11 4.63 11 8.26 11 12 C9.68 12.33 8.36 12.66 7 13 C5.7619986 9.42355152 6.25073929 6.66305234 7 3 C4.69 2.34 2.38 1.68 0 1 C0 0.67 0 0.34 0 0 Z " fill="#016AEE" transform="translate(366,120)"/>
<path d="M0 0 C0.33 0 0.66 0 1 0 C1.02471188 5.07201786 1.04286564 10.14400071 1.05493164 15.21606445 C1.05996158 16.9416566 1.06678626 18.66724448 1.07543945 20.39282227 C1.08756361 22.8725693 1.09324169 25.35226 1.09765625 27.83203125 C1.10281754 28.60400345 1.10797882 29.37597565 1.11329651 30.17134094 C1.11363318 33.3830228 1.02326578 35.93020266 0 39 C-1.485 39.495 -1.485 39.495 -3 40 C-3.33 38.35 -3.66 36.7 -4 35 C-3.01 35 -2.02 35 -1 35 C-0.67 23.45 -0.34 11.9 0 0 Z " fill="#1573E9" transform="translate(200,224)"/>
<path d="M0 0 C0.99 0.33 1.98 0.66 3 1 C3.02696365 2.79158489 3.04637917 4.58328473 3.0625 6.375 C3.07410156 7.37273437 3.08570313 8.37046875 3.09765625 9.3984375 C3 12 3 12 2 14 C0.00045254 14.04254356 -2.00041636 14.04080783 -4 14 C-5 13 -5 13 -5.09765625 10.27734375 C-5.08605469 9.17519531 -5.07445312 8.07304687 -5.0625 6.9375 C-5.05347656 5.83277344 -5.04445313 4.72804687 -5.03515625 3.58984375 C-5.02355469 2.73519531 -5.01195312 1.88054687 -5 1 C-4.67 1 -4.34 1 -4 1 C-4 4.63 -4 8.26 -4 12 C-2.68 11.67 -1.36 11.34 0 11 C0 7.37 0 3.74 0 0 Z " fill="#2877D7" transform="translate(490,229)"/>
<path d="M0 0 C0 0.99 0 1.98 0 3 C-1.65 3 -3.3 3 -5 3 C-5 3.66 -5 4.32 -5 5 C-7.31 5 -9.62 5 -12 5 C-12.33 4.01 -12.66 3.02 -13 2 C-12.01 1.67 -11.02 1.34 -10 1 C-10 0.67 -10 0.34 -10 0 C-6.30458414 -0.95024979 -3.69541586 -0.95024979 0 0 Z " fill="#0569EF" transform="translate(167,261)"/>
<path d="M0 0 C0.99 0.33 1.98 0.66 3 1 C3 6.28 3 11.56 3 17 C4.98 17 6.96 17 9 17 C9 17.66 9 18.32 9 19 C6.69 19 4.38 19 2 19 C0.76240177 15.28720531 0.64391103 11.68693654 0.4375 7.8125 C0.39431641 7.06291016 0.35113281 6.31332031 0.30664062 5.54101562 C0.20077315 3.69421625 0.0999024 1.84713166 0 0 Z " fill="#3278D5" transform="translate(490,248)"/>
<path d="M0 0 C2.97 0 5.94 0 9 0 C9 2.31 9 4.62 9 7 C6.03 7 3.06 7 0 7 C1.32 5.35 2.64 3.7 4 2 C2.68 1.34 1.36 0.68 0 0 Z " fill="#2175E0" transform="translate(457,240)"/>
<path d="M0 0 C0 0.33 0 0.66 0 1 C-2.31 1.33 -4.62 1.66 -7 2 C-7 2.66 -7 3.32 -7 4 C-8.32 4.33 -9.64 4.66 -11 5 C-11.33 9.62 -11.66 14.24 -12 19 C-14.56588452 16.43411548 -14.3554254 15.25533131 -14.4375 11.6875 C-14.37184255 7.5127802 -14.24954683 6.33722544 -11.6875 2.875 C-7.66751709 0.07036076 -4.79430769 -0.10654017 0 0 Z " fill="#87B8E8" transform="translate(309,221)"/>
<path d="M0 0 C0.99 0.33 1.98 0.66 3 1 C3.25 3.3125 3.25 3.3125 3 6 C1 7.8125 1 7.8125 -1 9 C-1 8.01 -1 7.02 -1 6 C-1.99 6 -2.98 6 -4 6 C-4 5.34 -4 4.68 -4 4 C-5.32 4.33 -6.64 4.66 -8 5 C-8 4.34 -8 3.68 -8 3 C-7.05125 2.690625 -6.1025 2.38125 -5.125 2.0625 C-2.13919592 1.12605258 -2.13919592 1.12605258 0 0 Z " fill="#116FE8" transform="translate(404,225)"/>
<path d="M0 0 C0.99 0.495 0.99 0.495 2 1 C2 1.66 2 2.32 2 3 C2.66 3 3.32 3 4 3 C6.16848358 7.51767413 7.6823277 10.88254225 7 16 C5.5 18.375 5.5 18.375 4 20 C4.0825 18.700625 4.165 17.40125 4.25 16.0625 C4.27988306 11.34097642 2.99259796 8.01667724 0.875 3.84765625 C0 2 0 2 0 0 Z " fill="#428AE0" transform="translate(311,243)"/>
<path d="M0 0 C-0.33 1.32 -0.66 2.64 -1 4 C-1.99 4 -2.98 4 -4 4 C-4 4.99 -4 5.98 -4 7 C-5.65 7.33 -7.3 7.66 -9 8 C-9.33 7.01 -9.66 6.02 -10 5 C-6.74272688 1.58761863 -4.94076175 0 0 0 Z " fill="#0269F2" transform="translate(338,223)"/>
<path d="M0 0 C2.475 0.99 2.475 0.99 5 2 C5 4.64 5 7.28 5 10 C3.68 10 2.36 10 1 10 C0.67 6.7 0.34 3.4 0 0 Z " fill="#026AF3" transform="translate(164,226)"/>
<path d="M0 0 C0.99 0.33 1.98 0.66 3 1 C3 1.66 3 2.32 3 3 C9.93 3.495 9.93 3.495 17 4 C16.67 4.66 16.34 5.32 16 6 C6.06485289 6.62638406 6.06485289 6.62638406 1.8125 4.125 C0 2 0 2 0 0 Z " fill="#3D81DF" transform="translate(296,261)"/>
<path d="M0 0 C1.65 0 3.3 0 5 0 C4.67 2.64 4.34 5.28 4 8 C2.68 7.67 1.36 7.34 0 7 C0 4.69 0 2.38 0 0 Z " fill="#036BEF" transform="translate(341,251)"/>
<path d="M0 0 C1.9375 0.8125 1.9375 0.8125 4 2 C5.00496852 5.01490557 5.10335303 7.04181692 5.0625 10.1875 C5.05347656 11.08855469 5.04445313 11.98960937 5.03515625 12.91796875 C5.02355469 13.60503906 5.01195312 14.29210937 5 15 C3.35 15 1.7 15 0 15 C0.99 14.67 1.98 14.34 3 14 C2.58846263 9.02906176 2.20399168 4.55491614 0 0 Z " fill="#4087D9" transform="translate(342,222)"/>
<path d="M0 0 C0 2.64 0 5.28 0 8 C-1.32 8 -2.64 8 -4 8 C-4.33 5.69 -4.66 3.38 -5 1 C-3 0 -3 0 0 0 Z " fill="#0369F0" transform="translate(345,228)"/>
<path d="M0 0 C5.61 0 11.22 0 17 0 C17 0.33 17 0.66 17 1 C14.36 1.33 11.72 1.66 9 2 C9 2.33 9 2.66 9 3 C6.03 3 3.06 3 0 3 C0 2.01 0 1.02 0 0 Z " fill="#1168D9" transform="translate(344,112)"/>
<path d="M0 0 C2.31 0 4.62 0 7 0 C7 0.66 7 1.32 7 2 C5.68 2.33 4.36 2.66 3 3 C2.67 7.95 2.34 12.9 2 18 C1.67 18 1.34 18 1 18 C0.67 12.06 0.34 6.12 0 0 Z " fill="#1B7AF1" transform="translate(483,247)"/>
<path d="M0 0 C0.33 0.66 0.66 1.32 1 2 C2.65 1.67 4.3 1.34 6 1 C4.32482761 4.53647504 3.50719183 5.7911563 -0.1875 7.3125 C-1.5796875 7.6528125 -1.5796875 7.6528125 -3 8 C-2.690625 7.236875 -2.38125 6.47375 -2.0625 5.6875 C-1.32106407 3.81210323 -0.63771783 1.91315348 0 0 Z " fill="#3480E0" transform="translate(297,193)"/>
<path d="M0 0 C0.66 0.33 1.32 0.66 2 1 C1.67 3.64 1.34 6.28 1 9 C-0.32 9 -1.64 9 -3 9 C-3 7.35 -3 5.7 -3 4 C-2.01 3.67 -1.02 3.34 0 3 C0 2.01 0 1.02 0 0 Z " fill="#026AEF" transform="translate(218,248)"/>
<path d="M0 0 C0.33 0 0.66 0 1 0 C1.33 4.29 1.66 8.58 2 13 C-0.64 13.33 -3.28 13.66 -6 14 C-6 12.35 -6 10.7 -6 9 C-5.67 9.99 -5.34 10.98 -5 12 C-3.68 11.67 -2.36 11.34 -1 11 C-0.67 7.37 -0.34 3.74 0 0 Z " fill="#3D8BEB" transform="translate(255,247)"/>
<path d="M0 0 C0.99 0 1.98 0 3 0 C3 0.99 3 1.98 3 3 C3.86625 3.37125 3.86625 3.37125 4.75 3.75 C7.3002997 5.16683317 9.01785701 6.87627537 11 9 C6.90385231 8.13350722 4.52464275 7.53809513 1.5625 4.5 C0 2 0 2 0 0 Z " fill="#5692DE" transform="translate(359,192)"/>
<path d="M0 0 C0.33 1.32 0.66 2.64 1 4 C0.34 4 -0.32 4 -1 4 C-0.938125 4.721875 -0.87625 5.44375 -0.8125 6.1875 C-1.09722944 10.45844161 -3.0281492 13.0281492 -6 16 C-5.52412884 9.97229862 -2.80277043 5.23321711 0 0 Z " fill="#5FA1E8" transform="translate(218,242)"/>
<path d="M0 0 C0.66 0.33 1.32 0.66 2 1 C1.67 3.97 1.34 6.94 1 10 C0.01 10 -0.98 10 -2 10 C-1.85950482 8.52031676 -1.71245174 7.04125484 -1.5625 5.5625 C-1.48128906 4.73878906 -1.40007812 3.91507813 -1.31640625 3.06640625 C-1 1 -1 1 0 0 Z " fill="#2179DF" transform="translate(221,234)"/>
<path d="M0 0 C0.66 0 1.32 0 2 0 C2 0.66 2 1.32 2 2 C3.32 2.33 4.64 2.66 6 3 C6 3.99 6 4.98 6 6 C6.66 6 7.32 6 8 6 C8 6.66 8 7.32 8 8 C6.68 8 5.36 8 4 8 C0 3.88888889 0 3.88888889 0 0 Z " fill="#4287E5" transform="translate(326,259)"/>
<path d="M0 0 C0 2.31 0 4.62 0 7 C-0.99 6.67 -1.98 6.34 -3 6 C-3.33 5.01 -3.66 4.02 -4 3 C-4.66 3 -5.32 3 -6 3 C-6.33 3.66 -6.66 4.32 -7 5 C-7 3.35 -7 1.7 -7 0 C-3.98968256 -0.93423645 -3.13349732 -1.04449911 0 0 Z " fill="#1675EE" transform="translate(304,228)"/>
<path d="M0 0 C0.66 0 1.32 0 2 0 C2 0.99 2 1.98 2 3 C2.99 3.33 3.98 3.66 5 4 C5 4.99 5 5.98 5 7 C5.99 7.33 6.98 7.66 8 8 C8 8.99 8 9.98 8 11 C6.68 10.34 5.36 9.68 4 9 C4 8.01 4 7.02 4 6 C3.34 6 2.68 6 2 6 C0 3 0 3 0 0 Z " fill="#5B98E1" transform="translate(268,188)"/>
<path d="M0 0 C6.27 0 12.54 0 19 0 C19 0.33 19 0.66 19 1 C10.585 1.495 10.585 1.495 2 2 C2 2.66 2 3.32 2 4 C1.01 4 0.02 4 -1 4 C-0.67 2.68 -0.34 1.36 0 0 Z " fill="#356CB8" transform="translate(342,111)"/>
<path d="M0 0 C0.99 0 1.98 0 3 0 C3.66 1.98 4.32 3.96 5 6 C3.02 6 1.04 6 -1 6 C-1.33 5.01 -1.66 4.02 -2 3 C-1.34 2.01 -0.68 1.02 0 0 Z " fill="#0769E5" transform="translate(335,261)"/>
<path d="M0 0 C0.66 0.33 1.32 0.66 2 1 C1.34 3.97 0.68 6.94 0 10 C-2.97 10 -5.94 10 -9 10 C-9 9.67 -9 9.34 -9 9 C-6.69 9 -4.38 9 -2 9 C-2.061875 7.88625 -2.061875 7.88625 -2.125 6.75 C-1.99601866 3.91241048 -1.42948778 2.41226062 0 0 Z " fill="#2474D3" transform="translate(353,172)"/>
<path d="M0 0 C0.33 0 0.66 0 1 0 C1.3690205 10.55808656 1.3690205 10.55808656 -1 15 C-1.33 15 -1.66 15 -2 15 C-2 12.03 -2 9.06 -2 6 C-1.67 6 -1.34 6 -1 6 C-0.67 4.02 -0.34 2.04 0 0 Z " fill="#7DB2ED" transform="translate(347,249)"/>
<path d="M0 0 C0.66 1.32 1.32 2.64 2 4 C-0.83430453 7.2542015 -2.68607774 8.5206753 -7 9 C-7 8.34 -7 7.68 -7 7 C-6.030625 6.360625 -5.06125 5.72125 -4.0625 5.0625 C-0.75744775 3.28938993 -0.75744775 3.28938993 0 0 Z " fill="#5194E6" transform="translate(360,151)"/>
<path d="M0 0 C0.99 0 1.98 0 3 0 C2.125 6.75 2.125 6.75 1 9 C0.34 9 -0.32 9 -1 9 C-0.67 6.03 -0.34 3.06 0 0 Z " fill="#0269F1" transform="translate(222,239)"/>
<path d="M0 0 C2 1.125 2 1.125 4 3 C4.25 6.1875 4.25 6.1875 4 9 C2.35 9 0.7 9 -1 9 C-0.67 8.34 -0.34 7.68 0 7 C0.66 7 1.32 7 2 7 C1.34 4.69 0.68 2.38 0 0 Z " fill="#5A8CD2" transform="translate(391,156)"/>
<path d="M0 0 C2.64 0 5.28 0 8 0 C8 0.66 8 1.32 8 2 C6.576875 2.433125 6.576875 2.433125 5.125 2.875 C1.94788422 3.76825109 1.94788422 3.76825109 0 6 C0 4.02 0 2.04 0 0 Z " fill="#3687E7" transform="translate(156,258)"/>
<path d="M0 0 C1.16015625 0.10054687 1.16015625 0.10054687 2.34375 0.203125 C4.86784958 0.84329518 5.84858624 1.78100667 7.5 3.75 C6.79875 3.605625 6.0975 3.46125 5.375 3.3125 C3.40180647 2.9264404 1.42183274 2.57397269 -0.5625 2.25 C-2.92047912 1.84864185 -5.19288786 1.37114558 -7.5 0.75 C-4.51786685 -0.24404438 -3.05541462 -0.30554146 0 0 Z " fill="#578EDB" transform="translate(253.5,221.25)"/>
<path d="M0 0 C1.1875 1.6875 1.1875 1.6875 2 4 C0.8125 6.6875 0.8125 6.6875 -1 9 C-1.99 9.33 -2.98 9.66 -4 10 C-4.33 9.34 -4.66 8.68 -5 8 C-4.01 8 -3.02 8 -2 8 C-2 6.35 -2 4.7 -2 3 C-1.34 3 -0.68 3 0 3 C0 2.01 0 1.02 0 0 Z " fill="#3B85E4" transform="translate(391,189)"/>
<path d="M0 0 C3.96 0 7.92 0 12 0 C12 0.33 12 0.66 12 1 C7.71 1.66 3.42 2.32 -1 3 C-0.67 2.01 -0.34 1.02 0 0 Z " fill="#2C7BE2" transform="translate(369,158)"/>
<path d="M0 0 C0.66 0 1.32 0 2 0 C2.33 0.66 2.66 1.32 3 2 C4.32 2 5.64 2 7 2 C7 2.99 7 3.98 7 5 C5.02 5 3.04 5 1 5 C0.67 3.35 0.34 1.7 0 0 Z " fill="#4B93E5" transform="translate(187,256)"/>
<path d="M0 0 C0 0.33 0 0.66 0 1 C-2.31 1.33 -4.62 1.66 -7 2 C-7 2.66 -7 3.32 -7 4 C-8.98 4.66 -10.96 5.32 -13 6 C-12 3 -12 3 -9.3125 1.3125 C-5.91018714 -0.03558623 -3.61672729 -0.25833766 0 0 Z " fill="#5B97DA" transform="translate(309,221)"/>
<path d="M0 0 C0 0.99 0 1.98 0 3 C-1.98567708 2.96744792 -3.97135417 2.93489583 -5.95703125 2.90234375 C-8.20305461 2.91736783 -8.20305461 2.91736783 -11 4 C-10.67 3.01 -10.34 2.02 -10 1 C-6.56484998 0.37542727 -3.50935186 0 0 0 Z " fill="#2A7BE3" transform="translate(254,222)"/>
<path d="M0 0 C0.6875 1.75 0.6875 1.75 1 4 C-0.3125 6.25 -0.3125 6.25 -2 8 C-2.66 8 -3.32 8 -4 8 C-3.6875 5.125 -3.6875 5.125 -3 2 C-2.01 1.34 -1.02 0.68 0 0 Z " fill="#3989E2" transform="translate(259,162)"/>
<path d="M0 0 C0.66 0.33 1.32 0.66 2 1 C1.67 3.31 1.34 5.62 1 8 C-0.32 7.34 -1.64 6.68 -3 6 C-2.34 5.67 -1.68 5.34 -1 5 C-0.34444881 2.47266765 -0.34444881 2.47266765 0 0 Z " fill="#277EEC" transform="translate(246,258)"/>
<path d="M0 0 C0.99 0.33 1.98 0.66 3 1 C3 3.64 3 6.28 3 9 C2.01 9.33 1.02 9.66 0 10 C-0.99 9.34 -1.98 8.68 -3 8 C-1.68 7.67 -0.36 7.34 1 7 C0.67 4.69 0.34 2.38 0 0 Z " fill="#4B91E5" transform="translate(307,251)"/>
<path d="M0 0 C0.66 0.33 1.32 0.66 2 1 C2.3367697 5.93928888 2.16130459 6.78492722 -1 11 C-0.67 7.37 -0.34 3.74 0 0 Z " fill="#5A9AE0" transform="translate(316,252)"/>
<path d="M0 0 C2 0.25 2 0.25 4 1 C4.33 1.99 4.66 2.98 5 4 C3.35 4.33 1.7 4.66 0 5 C-0.5625 3.0625 -0.5625 3.0625 -1 1 C-0.67 0.67 -0.34 0.34 0 0 Z " fill="#046BF4" transform="translate(158,223)"/>
<path d="M0 0 C1.32 0 2.64 0 4 0 C4 0.66 4 1.32 4 2 C4.66 2.33 5.32 2.66 6 3 C3.69 3.33 1.38 3.66 -1 4 C-0.67 2.68 -0.34 1.36 0 0 Z " fill="#036BF3" transform="translate(421,223)"/>
<path d="M0 0 C7.42857143 -0.14285714 7.42857143 -0.14285714 11 1 C11 1.99 11 2.98 11 4 C7.30099992 3.11223998 3.65449539 2.05418136 0 1 C0 0.67 0 0.34 0 0 Z " fill="#1D6EDA" transform="translate(366,120)"/>
<path d="M0 0 C0.66 0 1.32 0 2 0 C1.43628586 3.26954202 0.50037734 4.82575883 -2 7 C-2 5.68 -2 4.36 -2 3 C-2.66 2.67 -3.32 2.34 -4 2 C-2.68 2 -1.36 2 0 2 C0 1.34 0 0.68 0 0 Z " fill="#448CE4" transform="translate(169,258)"/>
<path d="M0 0 C0.66 0 1.32 0 2 0 C2 0.66 2 1.32 2 2 C3.32 2 4.64 2 6 2 C6 3.65 6 5.3 6 7 C1.125 3.375 1.125 3.375 0 0 Z " fill="#5499E4" transform="translate(297,240)"/>
<path d="M0 0 C2.31 0 4.62 0 7 0 C6.67 0.99 6.34 1.98 6 3 C3.9375 3.6875 3.9375 3.6875 2 4 C2 3.34 2 2.68 2 2 C1.34 2 0.68 2 0 2 C0 1.34 0 0.68 0 0 Z " fill="#0569F4" transform="translate(356,113)"/>
<path d="M0 0 C2.31 1.65 4.62 3.3 7 5 C6.67 5.66 6.34 6.32 6 7 C3.5625 6.3125 3.5625 6.3125 1 5 C0.1875 2.375 0.1875 2.375 0 0 Z " fill="#66A6E2" transform="translate(304,236)"/>
<path d="M0 0 C0.99 0 1.98 0 3 0 C3.33 0.99 3.66 1.98 4 3 C2.35 3.33 0.7 3.66 -1 4 C-0.67 2.68 -0.34 1.36 0 0 Z M-2 4 C-1.67 4.66 -1.34 5.32 -1 6 C-2.32 5.67 -3.64 5.34 -5 5 C-4.01 4.67 -3.02 4.34 -2 4 Z " fill="#146CDC" transform="translate(339,222)"/>
</svg>
